<svg xmlns="http://www.w3.org/2000/svg" viewBox="0 0 566 113"><defs><style>.a{fill:#3e3b39;fill-rule:evenodd;}</style></defs><title>lg-meta-main</title><path class="a" d="M26.39,94.56,16,97.05l-4-4,7.64-5.21L17,85.35l.87-4.26A165.12,165.12,0,0,0,39.32,74.6a119.72,119.72,0,0,0,18.86-9.91l.84-.6a43.54,43.54,0,0,1-1.9,5.19c-2.11,4.66-3.94,8.45-5.61,11.57L50.39,83l-3.69.88-.37.6a52.11,52.11,0,0,1-7.1,8.92,55.07,55.07,0,0,1-6.64,6.13l-.73.53ZM77.92,20.43A8.93,8.93,0,0,1,72.16,20a12,12,0,0,1-3.67-3.18l-.12-.14a12.33,12.33,0,0,0-2.2-2.19,3.56,3.56,0,0,0-3.89.4c-1.94,1.57-2.35,5.2-1.13,9.93l3,10.9a4.35,4.35,0,0,1,.1.45c0,.09.05.19.07.29L71.89,30a6.63,6.63,0,0,1,5.2-1.42A5.37,5.37,0,0,1,80.75,31c1.26,2,3.23,5.2,3.83,6.13a5.39,5.39,0,0,0,.64.25L83.61,24c-.89-4.41-3.85-3.89-4.9-3.71l-.16,0Zm-12.58-.54c.69-.08,1.44.69,1.55,1.82a1.86,1.86,0,0,1-.89,2h-.09c-.6.06-1.35-.71-1.46-1.84S64.8,20,65.34,19.89ZM80,26.4c-.6.07-1.36-.7-1.46-1.83v0a1.87,1.87,0,0,1,.89-2c.69-.08,1.44.69,1.55,1.81a1.84,1.84,0,0,1-.89,2A.14.14,0,0,1,80,26.4ZM46.32,4.45a6.87,6.87,0,0,0,0,2.71l3.16,14.07-2,3.44,1,4.68L61.91,41.83c-.26-1.26-.63-2.87-.84-3.74-.14-.59-.26-1.12-.35-1.51l-3-10.85c-2.14-8.37.53-12,2.27-13.46a7,7,0,0,1,8.08-.61A14.83,14.83,0,0,1,71,14.49l.26.3.14.15L71,11.37c-.23-3.51-1.85-5.55-4.75-5,0,0-4.37.68-6.44.28-2.39-.48-6.37-4.95-6.37-4.95-2-2.14-4.59-2-6.12.2A6.83,6.83,0,0,0,46.32,4.45ZM52,9.13c-.59.06-1.35-.71-1.46-1.83s.38-1.86.89-2c.69-.08,1.45.69,1.56,1.81a1.83,1.83,0,0,1-.9,2ZM26.43,31.47a99.44,99.44,0,0,1-6.12,21.77A75,75,0,0,1,6.42,75.14L4.9,73.87A72.07,72.07,0,0,0,17,52,95.16,95.16,0,0,0,21.57,30L24,28.85Zm-1.78-6.24-2.49,1.24.59-4.17-1.91-3.51,2.79.05,1.56-4.09,1.18,4.81,2.51,1.29L27,23.28l.37,4.88Zm64.06-.9-2-3.73-3.24-1.05,2-2.2L84.32,13.3l3.54,2.35,2.62-1.24-.07,3.51,2.83,3.15H89.9ZM52.58,101.16,51.41,105l-21.92,5.23-2.76-2.72a88.66,88.66,0,0,0,8-5.29,57.91,57.91,0,0,0,7-6.5,56,56,0,0,0,7.14-8.83l3.82-.93,1.86-3.47c1.71-3.18,3.58-7.07,5.72-11.8,4.12-9.16,5-19.81,5.33-27a16,16,0,0,0-.47-3.31l8.92-7.69A3.05,3.05,0,0,1,76.46,32a1.78,1.78,0,0,1,.73.29,1.92,1.92,0,0,1,.54.56c4,6.44,4.08,6.53,4.2,6.67h0c.25.28.73.85,4.34,1.9l1.1.36.76.24c3.49,1.1,8,2.54,10,7.8.15.46.3.91.43,1.43,1.46,6.09.39,13.19-4.2,20.5A69.74,69.74,0,0,1,75.45,92.16a49.82,49.82,0,0,1-17.28,7.78ZM100.9,83.74l3.82-2.18,1.66-4.86,1.81,3.47,3.89-.93-2.73,4.38.77,4.26-3.47-.71-3.45,3.5.54-4.83ZM101.58,47A76.89,76.89,0,0,0,91.13,26.38L92,24h3.57a80.57,80.57,0,0,1,9.47,22,90,90,0,0,1,2.66,26.45h-2A86.93,86.93,0,0,0,101.58,47ZM100,92a97.08,97.08,0,0,1-26.15,14,121.87,121.87,0,0,1-32.13,6.47l-.19-2a119.1,119.1,0,0,0,31-7.81A91.82,91.82,0,0,0,99.18,86.17l1.37,1ZM14.92,78.19,13.73,84,5,86.07l-4-4a91.4,91.4,0,0,0,8.2-5.41A57.63,57.63,0,0,0,16,70.38a52.29,52.29,0,0,0,7.3-9.15L27,60.36c2-3.48,4.22-8,7-14.13C38.2,36.87,39.26,25.64,39.18,19a8.48,8.48,0,0,1,2.3-5.18l2.31-2,2,8.85-2,3.42,1.43,7.05L62,46.64A87.79,87.79,0,0,1,60.3,59,129.25,129.25,0,0,1,37.93,71.38,163.94,163.94,0,0,1,16,78Zm529,2.29c-7.75,0-12.93-1-17-6-3-3.63-4.55-8.41-4.55-17.7,0-8.11.78-14.21,4.34-18.58,4.54-5.68,11.78-6.31,17.4-6.31h21V44h-13.6c-5.11,0-8.91,0-11.07,3.81-1.42,2.43-1.63,6.38-1.63,8.73,0,5.41.78,7.22,1.21,8.05,2.13,3.81,6.75,3.81,12.08,3.81H565.9V80.48ZM433.49,68.4c5.07,0,7.39-.62,8.59-1.11a6,6,0,0,0,4.22-6.09h-26v-11h26.05a6.53,6.53,0,0,0-1.24-2.78,6.66,6.66,0,0,0-2.38-1.93c-2.42-1.25-5.13-1.53-8.32-1.53H419.25V32h23.81c7.6,0,12.15,2.35,14.71,4.84,4.69,4.65,5,12.48,5,19,0,9.84-1.06,16.43-5.82,20.52-4.13,3.53-10.1,4.15-13.93,4.15H418.62V68.4Zm51.83,12h-16l0-48.53h16.06Zm17.23-48.51h19L504.32,52c-1.84,2.15-2.05,3.19-2.05,3.61,0,1.59,1.56,3.25,2.62,4.36l19.33,20.52H504.9L489.83,61.67c-1.21-1.52-2.92-4-2.92-6,0-1.8,1.21-4,2.28-5.4ZM223.83,79c-2.27-1.88-2.27-3.82-2.27-6.1l0-33.27a6.92,6.92,0,0,1,2.11-5.54,8.83,8.83,0,0,1,6-1.94H265.5V43.89H240.89a4,4,0,0,0-2.49.69,2.91,2.91,0,0,0-.78,2.36v3.67h27.15V61.16H237.62v5.27a2.19,2.19,0,0,0,.14,1,2.21,2.21,0,0,0,.57.82,4.14,4.14,0,0,0,2.81.63h24.55V80.63H229.87C227.81,80.63,225.75,80.49,223.83,79Zm80.23-34.8V80.63H288V44.17H270.23V32.1h51.61V44.17Zm8.53,36.46h16.92l3.9-10h17.93l3.91,10h16.88L353.72,37.44c-2.35-5.41-6.61-5.89-11.37-5.89-7.67,0-9.8,2.28-11.37,5.89Zm34.88-21.07H337.24l4.47-12.28h0c.14-.34.42-1,.64-1s.5.7.64,1Zm49.25-15.39V80.63H380.67V44.17H362.9V32.1h51.58V44.17ZM159.12,51v.14l.5,29.53H143.48V40.08c0-8.53,9.67-8.53,12.23-8.53,4.19,0,10.16.48,12.72,8l8,23.58c.14.49.92,2.22,1.49,2.22s1.35-1.73,1.49-2.22l8-23.58c2.56-7.55,8.53-8,12.79-8,11.3,0,12.23,5.54,12.23,8.53V80.63H196.28l.57-29.53c0-1.32-.34-1.6-.64-1.6s-.56.42-1,1.73l-7.68,23.44c-1.16,3.54-2.56,6.51-9.59,6.51s-8.46-3-9.6-6.51l-7.67-23.44c-.29-.9-.64-1.73-1-1.73C159.1,49.5,159.11,50.43,159.12,51Z"/></svg>