<svg xmlns="http://www.w3.org/2000/svg" viewBox="0 0 142.53 36.1"><defs><style>.a{fill:#3e3b39;}</style></defs><title>lg-meta-full</title><path class="a" d="M42,13.51h-1.4V8.44H42v1.89h1.7V8.44h1.39v5.07H43.74v-2H42Zm5.11,0H45.71l1.51-5.07h1.85l1.55,5.07H49.11l-.34-1.17H47.43Zm.49-2.17h1l-.24-.91c-.08-.29-.17-.7-.25-1h0c-.07.3-.15.71-.23,1Zm5,2.23a8,8,0,0,1-1.38-.09v-5a10.17,10.17,0,0,1,1.65-.11,3.38,3.38,0,0,1,1.58.25,1.1,1.1,0,0,1-.14,2.1v0a1.25,1.25,0,0,1,1,1.23,1.37,1.37,0,0,1-.16.63,1.44,1.44,0,0,1-.43.49,3.58,3.58,0,0,1-2.14.45Zm0-3.18H53c.59,0,.88-.2.88-.52s-.23-.49-.7-.49a3.44,3.44,0,0,0-.46,0Zm0,2.18h.4c.46,0,.85-.18.85-.63s-.4-.59-.92-.59h-.34Zm7-.17h-2.1v-.93h1.87v-1.1H57.54V9.56h2V8.44H56.15v5.07h3.48ZM63,13.59a3.55,3.55,0,0,0,1.3-.21l-.2-1.06a2.89,2.89,0,0,1-.92.14A1.39,1.39,0,0,1,61.64,11a1.38,1.38,0,0,1,1.49-1.49,2.5,2.5,0,0,1,1,.19l.27-1.08a3.36,3.36,0,0,0-1.3-.22,2.64,2.64,0,0,0-2.88,2.69A2.47,2.47,0,0,0,63,13.59Zm3.45-2.08h1.7v2h1.38V8.44h-1.4v1.89H66.43V8.44H65v5.07h1.4ZM70.27,11a2.5,2.5,0,0,1,2.58-2.65,2.41,2.41,0,0,1,2.52,2.56,2.56,2.56,0,1,1-5.11.08Zm1.47,0c0,.91.41,1.54,1.08,1.54h0c.67,0,1.06-.63,1.06-1.55s-.4-1.54-1.08-1.54-1.09.66-1.09,1.54Zm7.85,1.42H77.5v-.94h1.86v-1.1H77.5V9.56h2V8.44H76.1v5.07h3.49ZM81.68,11a2.5,2.5,0,0,1,2.58-2.65,2.41,2.41,0,0,1,2.52,2.56,2.45,2.45,0,0,1-2.6,2.67h0A2.42,2.42,0,0,1,81.67,11Zm1.47,0c0,.91.41,1.54,1.08,1.54h0c.68,0,1.07-.63,1.07-1.55s-.4-1.54-1.08-1.54-1.09.66-1.09,1.54Zm5.72,2.59a7.66,7.66,0,0,1-1.35-.09V8.44H91.2V9.55H88.89v.65c.21,0,.43,0,.64,0a2.55,2.55,0,0,1,1.52.44,1.52,1.52,0,0,1,.44.54,1.54,1.54,0,0,1,.13.67A1.48,1.48,0,0,1,91.1,13a3.62,3.62,0,0,1-2.23.59Zm0-1a2.83,2.83,0,0,0,.41,0,1,1,0,0,0,.62-.21.58.58,0,0,0,.18-.23.72.72,0,0,0,.06-.29.74.74,0,0,0,0-.25.65.65,0,0,0-.16-.21,1.12,1.12,0,0,0-.68-.21,2.22,2.22,0,0,0-.37,0ZM92.14,11a2.51,2.51,0,0,1,2.59-2.65,2.41,2.41,0,0,1,2.52,2.56,2.46,2.46,0,0,1-2.6,2.67A2.42,2.42,0,0,1,92.14,11Zm1.46,0c0,.91.41,1.54,1.08,1.54h0c.68,0,1.06-.63,1.06-1.55s-.4-1.53-1.08-1.53S93.6,10.1,93.6,11Zm5.75,2.53H98v-5a10.91,10.91,0,0,1,1.71-.11,2.73,2.73,0,0,1,1.65.4,1.47,1.47,0,0,1,.44.55,1.32,1.32,0,0,1,.15.67,1.55,1.55,0,0,1-.12.68,1.49,1.49,0,0,1-.39.57,2.57,2.57,0,0,1-1.72.53l-.34,0Zm0-2.76.32,0c.55,0,.89-.27.89-.71s-.26-.63-.79-.63a1.89,1.89,0,0,0-.41,0Zm4.53,1.45a.64.64,0,0,1-.24.22.53.53,0,0,1-.33.06,1.6,1.6,0,0,1-.44,0l-.1,1.09a1.72,1.72,0,0,0,.67.11,1.82,1.82,0,0,0,.83-.17,1.79,1.79,0,0,0,.64-.52,7.86,7.86,0,0,0,1-2.06l.93-2.45h-1.47L105,10.08c-.13.47-.22.83-.27,1h0c-.11-.31-.21-.63-.36-1l-.63-1.68H102.1L103.86,12a.18.18,0,0,1,0,.1.15.15,0,0,1,0,.11Zm2.64.28.45,0a4.83,4.83,0,0,0,.49-1.12,5.38,5.38,0,0,0,.18-1.49V8.44h3.62v4l.55,0-.06,2.34h-1l-.06-1.31h-3l-.07,1.31h-1Zm1.87-.06h1.48V9.55h-.94v.55a5.42,5.42,0,0,1-.21,1.49,4.14,4.14,0,0,1-.33.82ZM112.12,11a2.51,2.51,0,0,1,2.58-2.65,2.41,2.41,0,0,1,2.52,2.57,2.46,2.46,0,0,1-2.6,2.67,2.43,2.43,0,0,1-2.5-2.59Zm1.47,0c0,.91.41,1.54,1.08,1.54h0c.67,0,1.06-.63,1.06-1.55s-.4-1.53-1.08-1.53-1.07.66-1.07,1.54Zm5.74,2.6a10.51,10.51,0,0,1-1.37-.09v-5a10,10,0,0,1,1.64-.11,3.43,3.43,0,0,1,1.59.25,1.14,1.14,0,0,1,.7,1,1.13,1.13,0,0,1-.85,1.06v0a1.24,1.24,0,0,1,1,1.23,1.39,1.39,0,0,1-.15.63,1.44,1.44,0,0,1-.43.49,3.58,3.58,0,0,1-2.14.45Zm0-3.19h.28c.59,0,.88-.2.88-.52s-.23-.49-.7-.49a3.55,3.55,0,0,0-.46,0Zm0,2.18a2.71,2.71,0,0,0,.4,0c.47,0,.85-.18.85-.63s-.4-.59-.92-.59h-.34Zm4.53.95h-1.44l1.51-5.08h1.85l1.55,5.08h-1.5l-.33-1.18h-1.34Zm.48-2.18h1l-.24-.91c-.08-.29-.17-.7-.25-1h0c-.08.3-.15.71-.23,1Zm5,.17h1.7v2h1.39V8.44h-1.38v1.89h-1.7V8.44H128v5.07h1.39Zm6.45.47a16.23,16.23,0,0,0,.85-1.85h0a19.58,19.58,0,0,0-.09,2.17v1.21h1.27V8.44h-1.43l-.86,1.73c-.27.52-.63,1.24-.92,1.86h0c0-.67.06-1.54.06-2.35V8.44h-1.27v5.07h1.61Zm6.5.41h-2.07v-.92h1.86v-1.1h-1.86V9.56h2V8.44h-3.38v5.07h3.49ZM5.19,30.92l3.31-.78,1.73,1.71.24-.16a18.36,18.36,0,0,0,2.11-1.93A16.42,16.42,0,0,0,14.83,27l.12-.19,1.17-.28.36-.66c.53-1,1.11-2.18,1.78-3.64a14.07,14.07,0,0,0,.61-1.64l-.27.19a38.71,38.71,0,0,1-6,3.12,51.39,51.39,0,0,1-6.81,2l-.28,1.35.81.79L3.91,29.67ZM23,6.66a2.83,2.83,0,0,0,1.83.12l.2,0c.28,0,1.31-.31,1.61,1.16l.51,4.2A1,1,0,0,1,27,12c-.19-.29-.82-1.29-1.22-1.93a1.7,1.7,0,0,0-.5-.5,1.79,1.79,0,0,0-.66-.26A2.09,2.09,0,0,0,23,9.79l-2.41,2.06c0-.08,0-.17-.06-.23l-.95-3.44c-.39-1.49-.25-2.63.36-3.13a1.14,1.14,0,0,1,1.24-.12,4.15,4.15,0,0,1,.7.69A3.86,3.86,0,0,0,23,6.66Zm-1.67.53c0-.36-.28-.6-.5-.57s-.31.3-.28.62.27.6.47.58h0A.59.59,0,0,0,21.37,7.19Zm3.69.9c0,.36.27.6.46.58h0A.58.58,0,0,0,25.83,8c0-.35-.27-.6-.49-.57a.59.59,0,0,0-.28.63ZM14.84,2.6a2,2,0,0,1,0-.85A2.11,2.11,0,0,1,15.16,1,1.17,1.17,0,0,1,17.1.9s1.27,1.41,2,1.56a8.92,8.92,0,0,0,2.05-.09c.92-.19,1.43.46,1.5,1.56l.13,1.13-.13-.15A5.24,5.24,0,0,0,21.75,4a2.26,2.26,0,0,0-2.57.2c-.55.44-1.4,1.6-.72,4.23l.95,3.42c0,.13.06.29.11.48s.18.78.26,1.18L15.5,9.6l-.3-1.48L15.84,7Zm1.33,0c0,.35.27.59.46.58h0a.58.58,0,0,0,.28-.63c0-.36-.27-.6-.49-.57S16.14,2.32,16.17,2.65ZM6.56,17.12a31,31,0,0,0,2-6.86l-.77-.82L7,9.81A30.29,30.29,0,0,1,5.5,16.72a22.81,22.81,0,0,1-3.83,6.9l.48.4A23.46,23.46,0,0,0,6.56,17.12Zm.59-8.43.79-.39.87.92L8.69,7.68l.6-.76-.8-.41L8.11,5,7.62,6.28H6.73l.61,1.11ZM27.68,6.84,28.3,8l.38-1h1.06l-.9-1,0-1.1L28,5.28l-1.12-.74.37,1.28-.63.69ZM16.45,33.42l.37-1.2,1.77-.39a15.85,15.85,0,0,0,5.5-2.45,22,22,0,0,0,6-6.44,8.28,8.28,0,0,0,1.33-6.46c0-.16-.08-.31-.13-.45-.65-1.78-2.28-2.17-3.41-2.53l-.34-.12c-1.15-.33-1.31-.5-1.39-.59s-.06-.08-1.33-2.1a.58.58,0,0,0-.17-.18.5.5,0,0,0-.23-.09.9.9,0,0,0-.4,0,.92.92,0,0,0-.35.19l-2.83,2.42a6.06,6.06,0,0,1,.15,1,23.61,23.61,0,0,1-1.7,8.51c-.68,1.49-1.27,2.72-1.81,3.72l-.6,1.09-1.21.3a17.79,17.79,0,0,1-2.27,2.78,19.8,19.8,0,0,1-2.24,2A28.55,28.55,0,0,1,8.6,34.21l.88.86ZM33.39,26l-1.22.69.91.66-.17,1.52L34,27.81l1.1.23-.24-1.35.87-1.38-1.24.29-.58-1.09ZM29.07,8.66a24.2,24.2,0,0,1,3.32,6.5,27.26,27.26,0,0,1,1.32,8h.63a28.18,28.18,0,0,0-.85-8.33,25.32,25.32,0,0,0-3-6.94H29.35Zm-5.49,25.1a31.12,31.12,0,0,0,8.31-4.41l.17-1.54-.43-.31a29.44,29.44,0,0,1-8.47,5.22,38.35,38.35,0,0,1-9.85,2.46l.06.61A39,39,0,0,0,23.58,33.76Zm-19.11-7L4.85,25l.36-.07a54.68,54.68,0,0,0,7-2.07,41.21,41.21,0,0,0,7.11-3.9A26.89,26.89,0,0,0,19.8,15l-5.33-4.89L14,7.93l.64-1.07L14,4.07l-.74.63a2.68,2.68,0,0,0-.73,1.64,21.5,21.5,0,0,1-1.65,8.57c-.88,1.95-1.59,3.36-2.22,4.45l-1.17.28A16.45,16.45,0,0,1,5.2,22.52a17.87,17.87,0,0,1-2.18,2,29.76,29.76,0,0,1-2.6,1.7L1.7,27.47Zm128.59,2.07c1,1.18,2.23,1.43,4.1,1.43h5.31V27.41h-3.32c-1.29,0-2.4,0-2.92-.91a4.09,4.09,0,0,1-.29-1.93,4.58,4.58,0,0,1,.39-2.08c.53-.93,1.48-.92,2.75-.92h3.21V18.69h-5.08c-1.36,0-3.11.15-4.2,1.51-.86,1-1,2.5-1,4.44C132,26.86,132.34,28,133.06,28.87ZM112.6,27.14a5.48,5.48,0,0,1-2.07.27h-3.59v2.88h5.9a5.29,5.29,0,0,0,3.36-1c1.15-1,1.4-2.55,1.4-4.91,0-1.56-.08-3.43-1.21-4.54a4.92,4.92,0,0,0-3.55-1.16h-5.75v2.89h3.66a4.24,4.24,0,0,1,2,.36,1.65,1.65,0,0,1,.58.46,1.69,1.69,0,0,1,.3.67h-6.29v2.62h6.28A1.44,1.44,0,0,1,112.6,27.14Zm6.56,3.15H123V18.68h-3.87Zm12.61-11.6h-4.58L124,23.07a2.44,2.44,0,0,0-.55,1.29,2.71,2.71,0,0,0,.7,1.44l3.64,4.49h4.66l-4.67-4.9c-.25-.27-.63-.66-.63-1.05,0-.1,0-.34.5-.86ZM59.41,28.48A1.58,1.58,0,0,0,60,29.94a2.16,2.16,0,0,0,1.45.39h8.64V27.52H64.19a1.11,1.11,0,0,1-.74-.15.44.44,0,0,1-.13-.2.45.45,0,0,1,0-.23V25.68h6.55V23.16H63.28v-.88a.7.7,0,0,1,.19-.57,1,1,0,0,1,.6-.16H70V18.73H61.38a2.14,2.14,0,0,0-1.46.47,1.63,1.63,0,0,0-.51,1.32Zm19.9,1.85V21.61H83.6V18.73H71.15v2.88h4.28v8.72Zm6.14,0H81.37L85.8,20c.38-.87.89-1.41,2.75-1.41,1.14,0,2.17.11,2.74,1.41l4.44,10.32H91.66l-1-2.38H86.39Zm1.86-5h2.47L88.7,22.36c0-.08-.1-.25-.15-.25s-.13.17-.16.25Zm14.35,5V21.61h4.28V18.73H93.5v2.88h4.29v8.72ZM44.34,23.27c0-.11,0-.38.14-.38s.17.2.24.41l1.85,5.61c.28.84.62,1.56,2.32,1.56s2-.72,2.31-1.56l1.85-5.61c.11-.31.17-.41.24-.41s.16.07.16.38l-.14,7.06h3.91V20.64c0-.72-.22-2-2.95-2a2.81,2.81,0,0,0-3.09,1.92l-1.93,5.64c0,.11-.23.53-.36.53s-.33-.42-.36-.53l-1.94-5.64a2.8,2.8,0,0,0-3.07-1.92c-.62,0-3,0-3,2v9.69h3.89Z"/></svg>