<svg xmlns="http://www.w3.org/2000/svg" viewBox="0 0 452.93 69.75">
  <defs>
    <style>
      .a {
        fill: #fff;
        fill-rule: evenodd;
      }
    </style>
  </defs>
  <title>baikalsr</title>
  <path class="a" d="M47,64.42A2.43,2.43,0,0,1,44.55,67h-42A2.58,2.58,0,0,1,0,64.42,2.51,2.51,0,0,1,2.55,62h42A2.5,2.5,0,0,1,47,64.42ZM45.9,0H43.35a1.18,1.18,0,0,0-1.2,1.2V3.75A1.19,1.19,0,0,0,43.35,5H45.9a1.18,1.18,0,0,0,1.2-1.2V1.2A1.18,1.18,0,0,0,45.9,0ZM1.2,5H3.83A1.18,1.18,0,0,0,5,3.75H5V1.27A1.18,1.18,0,0,0,3.75.07H1.2A1.18,1.18,0,0,0,0,1.28V3.75A1.19,1.19,0,0,0,1.2,5Zm1.28,35.1A2.4,2.4,0,0,0,5,37.58V9.38A2.5,2.5,0,0,0,2.47,6.9,2.5,2.5,0,0,0,0,9.38v28.2A2.5,2.5,0,0,0,2.48,40.05Zm42.14,0a2.49,2.49,0,0,0,2.48-2.47V9.38a2.48,2.48,0,1,0-5,0v28.2A2.49,2.49,0,0,0,44.62,40.05ZM9.45,5h28.2a2.49,2.49,0,0,0,2.47-2.47A2.5,2.5,0,0,0,37.65.07H9.45A2.49,2.49,0,0,0,7,2.55,2.49,2.49,0,0,0,9.45,5ZM45.9,42H43.35a1.18,1.18,0,0,0-1.2,1.2v2.55a1.19,1.19,0,0,0,1.2,1.2H45.9a1.19,1.19,0,0,0,1.2-1.2V43.2A1.18,1.18,0,0,0,45.9,42ZM3.83,42H1.27A1.18,1.18,0,0,0,.08,43.2v2.55A1.18,1.18,0,0,0,1.27,47H3.83A1.18,1.18,0,0,0,5,45.75V43.2A1.18,1.18,0,0,0,3.83,42Zm33.82,0H9.45a2.48,2.48,0,0,0,0,5h28.2a2.49,2.49,0,0,0,2.47-2.47A2.45,2.45,0,0,0,37.65,42ZM20.2,23.36,7.73,35.77a2.38,2.38,0,0,0-.08,3.38,2.14,2.14,0,0,0,1.65.75A2.33,2.33,0,0,0,11,39.22l12.6-12.53,12.6,12.53a2.33,2.33,0,0,0,1.65.68,2.43,2.43,0,0,0,1.73-.75,2.54,2.54,0,0,0-.08-3.38L26.93,23.32,39.45,10.87a2.37,2.37,0,0,0,.08-3.37,2.28,2.28,0,0,0-3.3-.08L23.59,20,11,7.42a2.28,2.28,0,0,0-3.3.08,2.44,2.44,0,0,0,0,3.37ZM80.25,63.6A4.41,4.41,0,0,1,75.68,68a4.29,4.29,0,0,1-4.5-4.35,4.41,4.41,0,0,1,4.57-4.35A4.34,4.34,0,0,1,80.25,63.6Zm-2.4,0a2.26,2.26,0,0,0-2.17-2.33A2.17,2.17,0,0,0,73.5,63.6a2.25,2.25,0,0,0,2.18,2.32A2.12,2.12,0,0,0,77.85,63.6Zm13.87.15A4.24,4.24,0,0,1,87.3,68c-2.85,0-4.42-1.73-4.42-5,0-2.55.37-5.17,3.52-5.78l4.5-.82.37,1.88-4.57.9c-1.58.3-2,1.2-2,2a3.58,3.58,0,0,1,3.08-1.43A4,4,0,0,1,91.72,63.75Zm-2.39,0a2.1,2.1,0,0,0-2-2.17,2.05,2.05,0,0,0-2,2.17,2.11,2.11,0,0,0,2,2.18A2.06,2.06,0,0,0,89.33,63.75Zm14,1.2c0,1.8-1.2,2.85-3.22,2.85H95.92V61.42H93.75v-2h4.58l-.08,2.77H100C101.93,62.17,103.35,63.07,103.35,65ZM101,65c0-.6-.38-.9-1.2-.9L98.25,64v2h1.5C100.5,65.93,101,65.55,101,65Zm12.68-1.13v.6h-5.85a2,2,0,0,0,2,1.66,2.73,2.73,0,0,0,2-.83l1.35,1.2A4.1,4.1,0,0,1,109.73,68a4.22,4.22,0,0,1-4.28-4.42,4.17,4.17,0,0,1,4.13-4.35C112.35,59.25,113.63,61.42,113.63,63.82Zm-2.33-.9a1.8,1.8,0,1,0-3.6,0Zm12.9,2.86h1.13l-.3,4h-2v-2h-5.17l-.15,2h-2v-4h.9a14.47,14.47,0,0,0,.83-5.62V59.4h6.82Zm-2.4-4.36h-2.25v.15a10.67,10.67,0,0,1-.6,4.12l2.85.07Zm8.32,2.86V59.4H127.8v8.4h2.25l3.23-4.88V67.8h2.4V59.4h-2.25Zm14.11-1.66H141.3V59.4h-2.4v8.4h2.4V64.58h2.93V67.8h2.4V59.4h-2.4Zm8.62-3.15h4.43V67.8h-2.4V65.1H153.6l-1.8,2.7H149l2.18-3.08a2.45,2.45,0,0,1-1.72-2.47C149.48,60.6,150.67,59.47,152.85,59.47Zm.45,1.8c-.82,0-1.35.38-1.35,1s.52,1,1.43,1H155v-2.1Zm10.28-1.8H168V67.8h-2.4V65.1h-1.27l-1.81,2.7h-2.77l2.18-3.08a2.46,2.46,0,0,1-1.73-2.47C160.2,60.6,161.4,59.47,163.58,59.47Zm.45,1.8c-.83,0-1.36.38-1.36,1s.53,1,1.43,1h1.58v-2.1ZM182.1,63a3.72,3.72,0,0,1-1.65.38c-.75,0-1.12-.46-1.12-1.36V59.4h-2.41v3.3a2.67,2.67,0,0,0,2.93,2.7,5.22,5.22,0,0,0,2.25-.53V67.8h2.4V59.4h-2.4Zm12-2.77a3.78,3.78,0,0,1,.9,2.7V67.8h-2.32v-.9a3.13,3.13,0,0,1-2.55,1,2.56,2.56,0,0,1-2.78-2.62c0-1.81,1.43-2.71,3.38-2.71a5.31,5.31,0,0,1,2,.38v-.15c0-1-.6-1.5-1.8-1.5a5.82,5.82,0,0,0-2.32.45L188,60a7.72,7.72,0,0,1,3.22-.67A4.27,4.27,0,0,1,194.1,60.23Zm-1.35,4.19a4.06,4.06,0,0,0-1.5-.3c-1.05,0-1.65.38-1.65,1.2s.53,1.05,1.28,1.05c1.12-.07,1.87-.67,1.87-1.5ZM202.27,66a2.34,2.34,0,0,1-.07-4.65,2.75,2.75,0,0,1,2,.82l1.43-1.42a4,4,0,0,0-3.31-1.5A4.39,4.39,0,1,0,202.2,68a4.17,4.17,0,0,0,3.45-1.5l-1.43-1.42A2.79,2.79,0,0,1,202.27,66Zm14.41-2.4A4.41,4.41,0,0,1,212.1,68a4.34,4.34,0,0,1-4.5-4.35,4.41,4.41,0,0,1,4.58-4.35A4.35,4.35,0,0,1,216.68,63.6Zm-2.33,0a2.26,2.26,0,0,0-2.17-2.33A2.17,2.17,0,0,0,210,63.6a2.25,2.25,0,0,0,2.18,2.32A2.16,2.16,0,0,0,214.35,63.6Zm12.9,1.87c0,1.43-1.2,2.26-3.15,2.26h-4.57V59.4h4.65c1.65,0,2.77.75,2.77,2.1a1.91,1.91,0,0,1-1.35,1.88A2,2,0,0,1,227.25,65.47Zm-5.4-2.7h1.73c.67,0,1-.37,1-.82s-.3-.75-1-.75h-1.73Zm3,2.33c0-.45-.3-.82-1.13-.82h-1.8v1.65h1.88C224.55,65.93,224.85,65.55,224.85,65.1Zm13.8,2.7h2.4V59.4h-2.4ZM237.6,65c0,1.8-1.2,2.85-3.22,2.85h-4.2l-.08-8.4h2.4v2.78h1.73C236.17,62.17,237.6,63.07,237.6,65Zm-2.4,0c0-.6-.38-.9-1.2-.9L232.5,64v2H234C234.75,65.93,235.2,65.55,235.2,65Zm16.88-1.13v.6H246.3a2,2,0,0,0,2,1.66,2.71,2.71,0,0,0,2-.83l1.35,1.2A4.09,4.09,0,0,1,248.25,68a4.28,4.28,0,0,1-4.35-4.42A4.16,4.16,0,0,1,248,59.25C250.8,59.25,252.08,61.42,252.08,63.82Zm-2.25-.9a1.85,1.85,0,0,0-1.81-1.8,1.83,1.83,0,0,0-1.8,1.8Zm11.1-3.52v8.4h2.4V61.43h2.85V67.8h2.4l-.08-8.4Zm19.57,4.2A4.41,4.41,0,0,1,275.92,68a4.34,4.34,0,0,1-4.5-4.35A4.41,4.41,0,0,1,276,59.25,4.35,4.35,0,0,1,280.5,63.6Zm-2.32,0A2.26,2.26,0,0,0,276,61.27a2.17,2.17,0,0,0-2.17,2.33A2.25,2.25,0,0,0,276,65.92,2.16,2.16,0,0,0,278.18,63.6Zm8.25-4.13h4.42V67.8h-2.4V65.1h-1.27l-1.8,2.7H282.6l2.17-3.08a2.46,2.46,0,0,1-1.72-2.47C283.05,60.6,284.25,59.47,286.43,59.47Zm.37,1.8c-.82,0-1.35.38-1.35,1s.52,1,1.42,1h1.58v-2.1ZM298.13,66a2.34,2.34,0,0,1-.08-4.65,2.75,2.75,0,0,1,1.95.82l1.43-1.42a4,4,0,0,0-3.3-1.5,4.28,4.28,0,0,0-4.43,4.35A4.36,4.36,0,0,0,298.05,68a4.16,4.16,0,0,0,3.45-1.5l-1.42-1.42A2.83,2.83,0,0,1,298.13,66Zm12.37-5.77a3.78,3.78,0,0,1,.9,2.7V67.8h-2.32v-.9a3.17,3.17,0,0,1-2.56,1,2.56,2.56,0,0,1-2.77-2.62c0-1.81,1.43-2.71,3.38-2.71a5.31,5.31,0,0,1,2,.38v-.15c0-1-.6-1.5-1.8-1.5a5.82,5.82,0,0,0-2.32.45l-.6-1.8a7.72,7.72,0,0,1,3.22-.67A4.27,4.27,0,0,1,310.5,60.23Zm-1.35,4.19a4.06,4.06,0,0,0-1.5-.3c-1,0-1.65.38-1.65,1.2s.52,1.05,1.27,1.05c1.13-.07,1.88-.67,1.88-1.5ZM235.42,29.85l5,16.87h7l-8.55-25.64-.15-.53h-6.6l-.23.53-8.47,25.64h6.9Zm-54.74,1.27L191.1,20.4h-7.8l-8.85,8.7V20.4h-6.6V46.65h6.6V38.1l1.73-2,8.7,10.5H193Zm-77,2.93v-.53a13,13,0,0,1,.67-4.2c1.73-5.55,6.38-9.67,12.45-9.6H117c.08,0,4.58,0,7,3.08l.08.07V20.4H131V46.5h-6.9V44a6.09,6.09,0,0,1-1,1.28c-1.58,1.5-4.2,2-6.08,2A13.59,13.59,0,0,1,103.65,34.05Zm6.3.08a7.84,7.84,0,0,0,2.63,5.55,7.31,7.31,0,0,0,4.65,1.65,7.53,7.53,0,0,0,6.67-4.13l.23-.45a8.51,8.51,0,0,0,.75-3.37v-.46a7.44,7.44,0,0,0-.68-2.84,7.73,7.73,0,0,0-2-2.7,7.32,7.32,0,0,0-4.65-1.66,7.55,7.55,0,0,0-6.67,4.13,8.28,8.28,0,0,0-1,3.83Zm102.3-13.51,6.9-.07v26.1h-6.9V44.17a6.09,6.09,0,0,1-1.05,1.28c-1.5,1.5-4.12,1.95-6,1.95A13.62,13.62,0,0,1,192,34.2v-.53a15.17,15.17,0,0,1,.6-4.2c1.72-5.55,6.3-9.6,12.37-9.52h.23s4.5,0,7,3.07l.08.08Zm.07,9.53a8.23,8.23,0,0,0-1.95-2.63A7.44,7.44,0,0,0,199.05,30a9.14,9.14,0,0,0-.9,3.83v.45a7.83,7.83,0,0,0,2.62,5.55,7.16,7.16,0,0,0,4.58,1.65A7.53,7.53,0,0,0,212,37.35l.23-.45a8.63,8.63,0,0,0,.75-3.45V33A7.44,7.44,0,0,0,212.32,30.15ZM73.35,46.5H72.08V5h0V4.73H94.8v6.6H78.67V19.5h6.91s5-.08,8.39,2.7a13.36,13.36,0,0,1,5.78,10.35V33a12.49,12.49,0,0,1-.67,4.12,14.06,14.06,0,0,1-12.38,9.3,3.7,3.7,0,0,1-.9.08ZM78.67,40h7.51a7.61,7.61,0,0,0,5.17-3.52,6.22,6.22,0,0,0,.9-3.45v-.45a7,7,0,0,0-2.78-5,7.62,7.62,0,0,0-2.84-1.27A2,2,0,0,0,86,26.1H84.3l-5.63.07Zm76.66,3.29c.07,1,.22,2.48.75,3h6.37c.07-.15,0-.38,0-.53a.3.3,0,0,0-.07-.23V45.3c-.23-1.42-.3-4.13-.38-6.53V20h-7V34a9.88,9.88,0,0,1-1.13,4.28A6.11,6.11,0,0,1,149,40.8h-.52a5.52,5.52,0,0,1-2.85-1,5.92,5.92,0,0,1-2.4-3.3v-.08a14.48,14.48,0,0,1-.38-2.25,2.26,2.26,0,0,0-.07-.6c-.38-5.25,0-13.42,0-13.42l-.23-.08h-6.52c0,2.55.08,12.22,0,13.87a24.59,24.59,0,0,0,1,6.3,16,16,0,0,0,1.43,2.7c.15.15.22.38.37.53a2.61,2.61,0,0,1,.45.52,10.41,10.41,0,0,0,3.08,2.1h.07a11.9,11.9,0,0,0,4.8.9,3.14,3.14,0,0,0,.9-.08A9.21,9.21,0,0,0,155.33,43.27ZM424.2,33.6a8.49,8.49,0,0,1,.9-3.83,7.24,7.24,0,0,1,6.45-4.12A7.48,7.48,0,0,1,438,29.7l.07.23,5.78-2.33-.08-.22a13.59,13.59,0,0,0-25.65,1.72,14.55,14.55,0,0,0-.67,4.35V34c.3,7.81,6.38,13.88,13.8,13.88a13.77,13.77,0,0,0,12.37-8l.15-.23-5.7-2.32-.15.3a7.3,7.3,0,0,1-6.37,4,7.57,7.57,0,0,1-7.35-7.43V33.6ZM324,35.92v.23H304.2c.38,2,1.58,3.45,3.83,4.72a7.13,7.13,0,0,0,9.22-3.3l.15-.22L323.63,40l-.15.23a13.92,13.92,0,0,1-6.9,6.82h-.08c-.3.15-.6.23-.9.38l-.15.07a2.49,2.49,0,0,1-.82.3l-.23.08a3.59,3.59,0,0,0-.82.15l-.23.07a3.53,3.53,0,0,1-.9.15h-.15a5.67,5.67,0,0,1-1.12.08h0a4.26,4.26,0,0,0-.9-.07H310c-.23,0-.45-.08-.68-.08a3.1,3.1,0,0,0-.37-.07,1.37,1.37,0,0,1-.6-.08.88.88,0,0,1-.38-.07c-.15-.08-.3-.08-.45-.15l-.67-.23c-.15-.07-.23-.07-.38-.15a1,1,0,0,1-.45-.15c-.15-.07-.22-.07-.3-.15a3.71,3.71,0,0,1-.82-.37l-.23-.08a1.68,1.68,0,0,0-.45-.3L304,46.2c-.3-.22-.53-.37-.83-.6l-.15-.07c-.15-.15-.3-.23-.45-.38L302.4,45a6.71,6.71,0,0,1-.82-.75l-.08-.07a1.87,1.87,0,0,0-.37-.46l-.08-.14a9.81,9.81,0,0,1-1.12-1.43l-.08-.15a16.63,16.63,0,0,1-1-1.65l-.15-.23c-.07-.07-.07-.22-.15-.29a10,10,0,0,1-.67-1.73l-.08-.3a14.25,14.25,0,0,1-.6-3.52v-.53a14.66,14.66,0,0,1,.68-4.35,8.77,8.77,0,0,1,.67-1.8l.08-.22a13.86,13.86,0,0,1,6.9-6.83,7.74,7.74,0,0,1,1-.37l.15-.08a4.53,4.53,0,0,1,.9-.3l.23-.07a4.11,4.11,0,0,0,.82-.15l.23-.08a4,4,0,0,1,.9-.15h.15a6.46,6.46,0,0,1,1.12-.07h1.2c.23,0,.45.08.68.08a3.1,3.1,0,0,0,.37.07,1.37,1.37,0,0,1,.6.08,3.86,3.86,0,0,0,.38.07c.15.08.3.08.45.15l.68.23h.07a.49.49,0,0,1,.3.07,1.14,1.14,0,0,1,.45.15,1.64,1.64,0,0,1,.3.15,9.1,9.1,0,0,1,.83.38l.22.07a1.47,1.47,0,0,0,.45.3.22.22,0,0,1,.15.08l.75.52C324.45,25.8,324.23,33.45,324,35.92Zm-6.3-5.25a8.69,8.69,0,0,0-3.45-4.34,7.36,7.36,0,0,0-2.85-.61A7.26,7.26,0,0,0,305,29.85a3.93,3.93,0,0,0-.37.82ZM278,47.93c6.9,0,13.35-4.13,16.88-10.73h0l.22-.45-6.82-3.15-.15.23c-2.25,4.12-6,6.59-10.13,6.59-6.6,0-12-6.37-12-14.17s5.4-14.17,12-14.17c4.88,0,9.23,3.45,11.1,8.7l.08.3,6.9-2.93-.08-.23c-3.07-8.1-10.12-13.35-18-13.35-10.8,0-19.57,9.75-19.57,21.68S267.15,47.93,278,47.93Zm77.4-18.46a17.22,17.22,0,0,1,.6,4.36v.52A14.26,14.26,0,0,1,342,48.3c-1.65,0-4.57-.3-6.37-2L335,45.6v17H327.3V20H335V22.2c2.62-2.85,6.9-2.85,7-2.85h.46C348.38,19.35,353.4,23.32,355.35,29.47Zm-6.22,4.58a8.31,8.31,0,0,0-1-3.83,7.58,7.58,0,0,0-6.68-4.12,7.47,7.47,0,0,0-4.64,1.65,7.27,7.27,0,0,0-1.95,2.7,9.28,9.28,0,0,0-.68,2.85v.45a8.51,8.51,0,0,0,.75,3.37l.23.46a7.59,7.59,0,0,0,6.67,4.12,7.48,7.48,0,0,0,4.65-1.65,8.11,8.11,0,0,0,2.63-5.55v-.45ZM384.75,38v.3a7.68,7.68,0,0,1-.45,2.62,9.8,9.8,0,0,1-8.55,6h-5.48l-3.52.08h-7.2V20.25h15c.37,0,1.2,0,2.25.07,3.6.53,6.75,3.75,6.75,6.9a5.82,5.82,0,0,1-2,4.28,5.48,5.48,0,0,1-.46.6,16.12,16.12,0,0,1,1.66,1.35l.07.08A6,6,0,0,1,384.75,38Zm-17.77-8h7.42a3.63,3.63,0,0,0,1.05-.3,1.9,1.9,0,0,0,1.13-2,2.42,2.42,0,0,0-1.35-1.88,3.88,3.88,0,0,0-.75-.22H367ZM377.4,37.8a2.47,2.47,0,0,0-1.35-2c-.08-.08-.15-.08-.23-.15l-.07-.08c-.15,0-.22-.07-.3-.07h-.23a12.2,12.2,0,0,0-2.47-.23h-5.62v6.3H373a9.18,9.18,0,0,0,1.95-.15c.16,0,.31-.08.46-.08A2.66,2.66,0,0,0,377.33,39c0-.07.07-.67.07-.67V37.8ZM415,46.27a.26.26,0,0,0-.08-.22l-.08-.3c-.22-1.5-.3-4.35-.37-6.45v-19H407V34.5a9.82,9.82,0,0,1-1.05,4.13,5.86,5.86,0,0,1-4.65,2.4h-.52a5.58,5.58,0,0,1-2.7-1,6.1,6.1,0,0,1-2.33-3.15v-.08a13.7,13.7,0,0,1-.37-2.1v-.07a1.06,1.06,0,0,0-.08-.53V34c-.37-5.17,0-13.27,0-13.35v-.29h-7.2v.29c0,4.5.08,12.38,0,13.88a24.21,24.21,0,0,0,1.05,6.38,11.72,11.72,0,0,0,1.5,2.7c.15.14.3.37.45.52s.3.38.45.52a9.69,9.69,0,0,0,3.23,2.18h.07a11.64,11.64,0,0,0,4.8.9h.08a3.18,3.18,0,0,0,.9-.08,10,10,0,0,0,6.9-3.15,4.51,4.51,0,0,0,.75,2.48l.07.07h6.9l-.07-.31C415.05,46.58,415.05,46.42,415,46.27ZM149.47,19.8a8.4,8.4,0,0,0,7.35-4.87L153.23,13a5.21,5.21,0,0,1-4,2,5.11,5.11,0,0,1-4.35-2.1l-3.45,1.88A8.27,8.27,0,0,0,149.47,19.8Zm303.46-3.45a4.88,4.88,0,1,1-4.88-4.88A4.87,4.87,0,0,1,452.93,16.35Zm-1,0a3.9,3.9,0,1,0-3.9,3.9A3.87,3.87,0,0,0,452,16.35Zm-1.87,1.88.3.29H449.1l-.07-.07a2.24,2.24,0,0,1-.15-.83v-.15c-.08-.52-.15-.67-.75-.67h-.75v1.72h-1.13V14h2.18c1,0,1.57.53,1.57,1.35a1.22,1.22,0,0,1-.45,1,1.36,1.36,0,0,1,.38,1v.15A1.84,1.84,0,0,0,450.08,18.23ZM449,15.53c0-.31-.07-.45-.67-.45h-.9l.07.89h.75C448.72,16,449,15.9,449,15.53Z"/>
</svg>
