<svg xmlns="http://www.w3.org/2000/svg" viewBox="0 0 489.58 45.82">
  <defs>
    <style>
      .a {
        fill: #fff;
        fill-rule: evenodd;
      }
    </style>
  </defs>
  <title>jde2</title>
  <path class="a" d="M24.07,21h1.58c3.25,0,3.67,1.94,4,3.51l1.21,6.3c.42,2.2.73,3.87,2.2,5.19,1.94,1.73,5.4,1.73,5.5,1.73.9,0,1-.42,1.11-.79l1.36-4a.72.72,0,0,0-.53-1l-1.36-.32a2.46,2.46,0,0,1-1.62-1,9.35,9.35,0,0,1-.69-2.46L36,23.64a6.88,6.88,0,0,0-4.72-5.55v-.16a5.91,5.91,0,0,0,4.09-5.09L36,9.12c.41-2.62,1.1-3,2.3-3.35l1.31-.32a.8.8,0,0,0,.53-1.1L39,.63A.9.9,0,0,0,38,0a9.38,9.38,0,0,0-4.46,1.31c-2.36,1.42-2.83,3.46-3.19,5.61l-.79,4.46c-.58,3.19-1.94,3.93-4.46,3.93H24.07V5.92h2.31c.42,0,1.1.21,1.1-1.1V2c0-1.31-.68-1.15-1.1-1.15H14.69c-.42,0-1.1-.16-1.1,1.15V4.82c0,1.31.68,1.1,1.1,1.1H17v9.39H16c-2.52,0-3.88-.74-4.46-3.93L10.7,6.92c-.36-2.15-.83-4.19-3.19-5.61A9.38,9.38,0,0,0,3.05,0a.9.9,0,0,0-1,.63L1,4.35a.8.8,0,0,0,.53,1.1l1.31.32C4,6.08,4.68,6.5,5.1,9.12l.62,3.72a5.91,5.91,0,0,0,4.09,5.09v.16A6.84,6.84,0,0,0,5.1,23.64l-.84,4.41a9.35,9.35,0,0,1-.69,2.46,2.44,2.44,0,0,1-1.62,1l-1.36.32a.73.73,0,0,0-.53,1l1.37,4c.15.37.21.79,1.1.79.1,0,3.56,0,5.5-1.73,1.63-1.42,1.89-3.52,2.2-5.19l1.26-6.3c.32-1.57.74-3.51,4-3.51H17v10.8H14.69c-.42,0-1.1-.21-1.1,1.1V35.7c0,1.31.68,1.1,1.1,1.1H26.38c.42,0,1.1.21,1.1-1.1V32.87c0-1.31-.68-1.1-1.1-1.1H24.07V21Zm41.32,8.18c0-.68-.26-.94-1-.94h-3c-.79,0-1,.21-1,.94V31.4H54.8V24.69h7.39c.89,0,1.21-.21,1.21-1.1v-3.2c0-.94-.32-1.1-1.21-1.1H54.8v-5.5h5.29v1.94c0,.73.26.94,1,.94h3.14c.74,0,1-.21,1-.94V9.33c0-.73-.21-.94-1-.94H46.15c-1,0-1.16.21-1.16,1v2.83c0,.84.16,1.1,1.16,1.1h2.09V31.88H46.15c-1,0-1.16.21-1.16,1.1V35.7c0,.89.16,1.1,1.16,1.1H64.23c1,0,1.16-.21,1.16-1.1V29.15Zm16.3-15.36h5.14V31.88h-2.1c-.84,0-1.15.1-1.15,1.1V35.7c0,1,.26,1.1,1.21,1.1h10.8c.78,0,1.2-.1,1.2-1.1V33c0-1-.42-1.1-1.2-1.1h-2V13.37h2c.78,0,1.2-.11,1.2-1.1V9.44c0-.95-.42-1-1.2-1H73.41c-.84,0-1.16.1-1.16,1v2.83c0,1,.32,1.1,1.16,1.1h2.1v1.78c0,3.51-.06,5.35-.21,8.55-.11,2.51-.32,5.14-1.79,6.66a5,5,0,0,1-2.93,1.31l-.63.1a.87.87,0,0,0-.74,1.1l1.11,4c.15.57.62.63,1.15.63a9,9,0,0,0,7.13-3.1c2.2-2.67,2.57-6.13,2.78-8.91.26-3.36.31-5.4.31-8.49v-3.2Zm45,18V5.92h2.67c.42,0,1.1.21,1.1-1.1V2c0-1.31-.68-1.1-1.1-1.1H105.34c-.42,0-1.1-.21-1.1,1.1V4.82c0,1.31.68,1.1,1.1,1.1H108v6.14c0,8.86-1.89,15.15-4.09,19.71h-1.68c-.84,0-.73.42-.73,1.05v12c0,.68,0,1,.73,1h5.35c.84,0,.79-.31.79-1v-8h15.25v8c0,.68,0,1,.79,1h5.35c.84,0,.73-.47.73-1v-12c0-.63.11-1.05-.73-1.05Zm-7.08-.63h-8.91c2.36-4.82,3.2-10,3.4-18l.16-6.56h5.35V31.14Zm39.58-9c0-9.54-3.77-14.47-11.32-14.47-8.65,0-11.54,6.71-11.54,14.47,0,10.22,3.62,15.31,11.28,15.31s11.58-5.19,11.58-15.31Zm-6.87.36c0,7-1.62,9.65-4.56,9.65s-4.56-2.57-4.56-9.49,1.68-9.7,4.56-9.7,4.56,2.52,4.56,9.54ZM166.31,8.39c-1,0-1.15.21-1.15,1v2.83c0,.84.15,1.1,1.15,1.1h2.1V31.88h-2.1c-1,0-1.15.21-1.15,1.1V35.7c0,.89.15,1.1,1.15,1.1h11.38c.94,0,1.2-.21,1.2-1.1V33c0-.89-.26-1.1-1.2-1.1H175V25.64h2.15c6.34,0,10.54-3.62,10.54-9.28a8.15,8.15,0,0,0-2.52-6.14c-1.73-1.36-3.93-1.83-8.23-1.83ZM175,20.45V13.53h1.63c3.67,0,4.72.78,4.72,3.3,0,2.88-1.37,3.62-5.25,3.62Zm17.56,14.2c0,.79,1,1.32,1.42,1.53a16.5,16.5,0,0,0,7,1.52c7.6,0,11.07-4,12.53-6.66,1.73-3.15,2.15-7.13,2.15-11.22,0-3.57-.15-7.76-1.67-11.54C211.29,1.73,206.31,0,201.75,0c-3.46,0-8.81,1.47-8.81,3.46v7c0,1,.63.89.89.89h3.88c1,0,.9-.42.9-.89V5.71a8.81,8.81,0,0,1,2.77-.47A6,6,0,0,1,205.89,7c2.15,2.2,2.62,6.14,2.62,8.55H200.7c-.47,0-1-.16-1,1.15V20c0,1.25.58,1.1,1,1.1h7.81c0,3.25-.36,7.07-2.56,9.43a6.4,6.4,0,0,1-4.88,1.94,8.38,8.38,0,0,1-2.88-.57V27.05c0-.26.15-.89-.89-.89h-3.88c-1,0-.9.63-.9.89v7.6Zm41-26.26H222.67c-.84,0-1.15.1-1.15,1v2.83c0,1,.31,1.1,1.15,1.1h2.1V31.88h-2.1c-.84,0-1.15.1-1.15,1.1V35.7c0,1,.31,1.1,1.15,1.1h10.85c.79,0,1.21-.1,1.21-1.1V33c0-1-.42-1.1-1.21-1.1h-2V24.54h1.89a4,4,0,0,1,2.83.89,5.49,5.49,0,0,1,1.1,2.93l.63,3.73A6.47,6.47,0,0,0,239.76,36a9.57,9.57,0,0,0,5,1.52c.84,0,1.1-.16,1.26-.79l1.15-4a.64.64,0,0,0-.52-.84l-.58-.1a3,3,0,0,1-1.83-.74,4.09,4.09,0,0,1-.74-1.93L243,26.63a6.36,6.36,0,0,0-1.62-3.51,5,5,0,0,0-2.31-1.26v-.1a4.07,4.07,0,0,0,2-1.16,4.83,4.83,0,0,0,1.31-2.51l.53-2.26a3.82,3.82,0,0,1,.73-1.83,3.59,3.59,0,0,1,1.73-.89l.53-.16a.81.81,0,0,0,.52-1.1l-1-3.46c-.15-.58-.47-.68-1.1-.68a7.78,7.78,0,0,0-5,2,7,7,0,0,0-1.78,3.78l-.42,2.41a5,5,0,0,1-1.1,2.78,4.38,4.38,0,0,1-3,.84h-1.57V13.37h2c.79,0,1.21-.11,1.21-1.1V9.44c0-.95-.42-1-1.21-1ZM272.27,29c0-.68-.27-.94-1-.94H268c-.79,0-1.1.21-1.1.94v2.68a8.12,8.12,0,0,1-2.05.26c-4.72,0-6.24-3.2-6.24-10.12,0-6.08,1.37-8.55,5.77-8.55a5.66,5.66,0,0,1,2.15.37v2.52c0,.68.31.94,1.05.94h3.35c.79,0,1-.26,1-.94V10.64c0-1.67-4-2.93-7.76-2.93-8.07,0-12.42,5.34-12.42,15.15,0,5.35,1.2,9.17,3.82,11.9,1.89,1.94,4.62,2.73,8.65,2.73s8.08-1.11,8.08-2.57V29Zm32.92,4c0-.95-.31-1.1-1.2-1.1h-2.05V13.37H304c.89,0,1.2-.21,1.2-1.1V9.44c0-.89-.26-1-1.2-1H279.08c-1,0-1.15.21-1.15,1v2.83c0,.84.16,1.1,1.15,1.1h2.1V31.88h-2.1c-1,0-1.15.21-1.15,1.1V35.7c0,.89.16,1.1,1.15,1.1h10.59c.95,0,1.1-.21,1.1-1.1V33c0-.89-.15-1.1-1.1-1.1h-1.94V13.79h7.66V31.88h-1.94c-.89,0-1.21.15-1.21,1.1V35.7c0,.95.32,1.1,1.21,1.1H304c.94,0,1.2-.21,1.2-1.1V33Zm25.9-3.83c0-.68-.26-.94-1-.94h-3c-.79,0-1.05.21-1.05.94V31.4H320.5V24.69h7.39c.89,0,1.21-.21,1.21-1.1v-3.2c0-.94-.32-1.1-1.21-1.1H320.5v-5.5h5.3v1.94c0,.73.26.94,1,.94h3.15c.73,0,.94-.21.94-.94V9.33c0-.73-.21-.94-.94-.94H311.85c-1,0-1.15.21-1.15,1v2.83c0,.84.15,1.1,1.15,1.1H314V31.88h-2.1c-1,0-1.15.21-1.15,1.1V35.7c0,.89.15,1.1,1.15,1.1h18.09c1,0,1.15-.21,1.15-1.1V29.15Zm24.48,7.65v6.3c0,.57.16.83.84.83h3.88c.58,0,.84-.15.84-.83V32.35a.74.74,0,0,0-.84-.79h-1.94V13.37h1.79c.78,0,1.2-.11,1.2-1.1V9.44c0-.95-.42-1-1.2-1l-20.66,0c-.84,0-1.15.11-1.15,1.05v2.83c0,1,.31,1.1,1.15,1.1h1.83v3.15a45.7,45.7,0,0,1-.57,7.86,26.18,26.18,0,0,1-2.57,7.13h-1.36a.73.73,0,0,0-.84.79V43.1c0,.57.26.83.84.83h3.87c.69,0,.84-.26.84-.83V36.8Zm-3.4-5.24h-8a29.22,29.22,0,0,0,2.41-8,47.12,47.12,0,0,0,.57-8.18v-2h5V31.56ZM393.22,8.39h-10c-.84,0-1.16.1-1.16,1v2.83c0,1,.32,1.1,1.16,1.1h1.88v.42L379,20.87a23.6,23.6,0,0,0-3.15,4.24h-.15c.1-1.57.15-2.78.15-4.45V13.37h1.84c.78,0,1.2-.11,1.2-1.1V9.44c0-.95-.42-1-1.2-1h-10c-.84,0-1.16.1-1.16,1v2.83c0,1,.32,1.1,1.16,1.1h1.88V31.88h-1.83c-.79,0-1.21.1-1.21,1.1v2.78c0,.94.42,1,1.21,1h10c.84,0,1.15-.1,1.15-1V33c0-1-.31-1.1-1.15-1.1h-1.89v-.42l6.4-7.08A16.69,16.69,0,0,0,385.14,20h.16c-.05,1.2-.16,3.09-.16,4.24v7.61h-1.88c-.84,0-1.16.1-1.16,1.1V35.7c0,1,.26,1.1,1.21,1.1h9.91c.78,0,1.2-.1,1.2-1.1V33c0-1-.42-1.1-1.2-1.1h-1.84V13.37h1.84c.78,0,1.2-.11,1.2-1.1V9.44c0-.95-.42-1-1.2-1Zm30.3,23v-18h2.05c.78,0,1.2-.11,1.2-1.1V9.44c0-.95-.42-1-1.2-1H415.29c-.84,0-1.15.1-1.15,1v2.83c0,1,.31,1.1,1.15,1.1H417v18h-7.24v-18h1.63c.78,0,1.2-.11,1.2-1.1V9.44c0-.95-.42-1-1.2-1H401.08c-.73,0-1.15.1-1.15,1v2.83c0,1,.31,1.1,1.15,1.1h2.1V31.88h-2.1c-.84,0-1.15.1-1.15,1.1V35.7c0,1,.31,1.1,1.15,1.1h20.19v6.3c0,.57.26.83.84.83H426c.58,0,.84-.15.84-.83v-11a.73.73,0,0,0-.84-.79Zm34.92-23h-10c-.84,0-1.16.1-1.16,1v2.83c0,1,.32,1.1,1.16,1.1h1.88v.42l-6.13,7.08a23.6,23.6,0,0,0-3.15,4.24h-.15c.1-1.57.15-2.78.15-4.45V13.37h1.84c.79,0,1.2-.11,1.2-1.1V9.44c0-.95-.41-1-1.2-1H433c-.84,0-1.16.1-1.16,1v2.83c0,1,.32,1.1,1.16,1.1h1.88V31.88H433c-.79,0-1.21.1-1.21,1.1v2.78c0,.94.42,1,1.21,1h10c.84,0,1.15-.1,1.15-1V33c0-1-.31-1.1-1.15-1.1h-1.89v-.42l6.4-7.08A16.69,16.69,0,0,0,450.36,20h.16c0,1.2-.16,3.09-.16,4.24v7.61h-1.88c-.84,0-1.16.1-1.16,1.1V35.7c0,1,.26,1.1,1.21,1.1h9.91c.78,0,1.2-.1,1.2-1.1V33c0-1-.42-1.1-1.2-1.1H456.6V13.37h1.84c.78,0,1.2-.11,1.2-1.1V9.44c0-.95-.42-1-1.2-1Zm17.46,0c-2.42,0-5.09.26-7.19,2.1a7.75,7.75,0,0,0-2.46,6.08,6.39,6.39,0,0,0,4.93,6.71v.1a4,4,0,0,0-1.94,1.26,5.91,5.91,0,0,0-1.31,2.73l-.48,1.88a4,4,0,0,1-.78,1.68,3.41,3.41,0,0,1-1.78.74l-.58.1a.73.73,0,0,0-.53,1.05l1.32,4c.15.52.68.57,1.1.57a9,9,0,0,0,5.34-1.88,7,7,0,0,0,1.73-3.78l.53-2.52a4.48,4.48,0,0,1,1.41-2.72,4.4,4.4,0,0,1,2.52-.74h1.89v6.09h-2.1c-.84,0-1.15.1-1.15,1.1V35.7c0,1,.26,1.1,1.2,1.1h10.8c.79,0,1.21-.1,1.21-1.1V33c0-1-.42-1.1-1.21-1.1h-2V13.37h2c.79,0,1.21-.11,1.21-1.1V9.44c0-.95-.42-1-1.21-1Zm3.72,12.42h-2.26a5.33,5.33,0,0,1-3.56-.94,3.52,3.52,0,0,1-1.1-2.78,3.56,3.56,0,0,1,1-2.72,4.44,4.44,0,0,1,3.05-1h2.88Z"/>
</svg>
