<?xml version="1.0" encoding="UTF-8"?>
<svg id="_Слой_1" data-name="Слой 1" xmlns="http://www.w3.org/2000/svg" viewBox="0 0 284.26 110.24">
  <defs>
    <style>
      .cls-1 {
        fill: #fff;
      }
    </style>
  </defs>
  <path class="cls-1" d="M67.54,92.57c.12,1.92-1.34,3.58-3.27,3.7-.08,0-.17,0-.25,0H3.67c-2.03-.02-3.66-1.68-3.66-3.71,.07-1.96,1.7-3.51,3.66-3.48h60.35c1.91,.04,3.46,1.57,3.52,3.48ZM66.01,0s-.04,0-.06,0h-3.66c-.94-.02-1.71,.73-1.72,1.67,0,.02,0,.04,0,.06v3.66c-.05,.94,.68,1.75,1.62,1.79,.03,0,.07,0,.1,0h3.66c.94,.02,1.71-.73,1.72-1.67,0-.02,0-.04,0-.06V1.72c.02-.94-.73-1.71-1.67-1.72ZM0,5.39c-.05,.94,.68,1.75,1.62,1.79,.03,0,.07,0,.1,0h3.78c.94,0,1.69-.77,1.68-1.71,0-.03,0-.06,0-.09V1.83c.02-.94-.73-1.71-1.66-1.73-.04,0-.09,0-.13,0H1.73C.79,.08,.02,.83,0,1.77c0,.02,0,.05,0,.07v3.55ZM7.19,54.35c0-.12,0-.24,0-.35V13.48c-.02-1.98-1.64-3.58-3.62-3.56,0,0,0,0-.01,0C1.6,9.94,.02,11.52,0,13.48V54c.02,1.96,1.61,3.53,3.56,3.55v.07c1.9,.1,3.52-1.36,3.62-3.27ZM64.09,9.89c-1.98,0-3.59,1.61-3.59,3.59V54c.02,1.98,1.63,3.57,3.61,3.55,0,0,0,0,.01,0v.07c1.96,0,3.55-1.59,3.56-3.55V13.48c0-1.98-1.61-3.59-3.59-3.59ZM13.58,7.18H54.1c1.95-.02,3.53-1.6,3.55-3.55-.03-1.94-1.6-3.51-3.55-3.53H13.58c-1.95,.03-3.51,1.62-3.52,3.56,.03,1.93,1.59,3.49,3.52,3.52Zm52.43,53.17s-.04,0-.06,0h-3.66c-.94-.02-1.71,.73-1.72,1.67,0,.02,0,.04,0,.06v3.66c0,.94,.75,1.72,1.7,1.72,0,0,.02,0,.03,0h3.66c.94,0,1.72-.75,1.72-1.7,0,0,0-.02,0-.03v-3.66c.02-.94-.73-1.71-1.67-1.72ZM1.71,67.53s.08,0,.12,0h3.68c.94,0,1.69-.77,1.68-1.71,0-.03,0-.06,0-.09v-3.66c.02-.94-.73-1.71-1.67-1.72h-.01s-3.68,0-3.68,0c-.94,0-1.7,.74-1.71,1.68,0,.01,0,.03,0,.04v3.66c-.06,.93,.66,1.74,1.59,1.79Zm11.87,0H54.1c1.95-.02,3.53-1.6,3.55-3.55,.06-1.94-1.46-3.57-3.4-3.63-.05,0-.1,0-.15,0H13.58c-1.98,0-3.59,1.61-3.59,3.59s1.61,3.59,3.59,3.59Zm-2.59-11.28c.59,.69,1.46,1.09,2.37,1.08,.91,.02,1.8-.33,2.44-.98l18.11-18,18.1,18c.63,.63,1.48,.98,2.37,.98,.94-.01,1.84-.4,2.49-1.08,1.2-1.41,1.15-3.5-.11-4.86l-18.06-17.89L56.69,15.62c1.37-1.29,1.43-3.45,.14-4.81,0,0-.02-.02-.03-.03-1.22-1.34-3.29-1.44-4.63-.22-.04,.04-.08,.07-.11,.11l-18.16,18.08L15.81,10.66c-1.28-1.28-3.35-1.28-4.63,0-.04,.04-.07,.08-.11,.11-1.29,1.35-1.29,3.49,0,4.84l17.96,17.95L11.11,51.4c-1.37,1.3-1.43,3.46-.14,4.83,0,0,.01,.01,.02,.02Zm215.55-12.21c-7.21-.2-13.01-5.99-13.23-13.2v-.53c0-1.42,.2-2.84,.6-4.2,1.72-5.55,6.3-9.6,12.37-9.52h.23s4.5,0,7,3.07l.08,.08v-2.48l6.9-.07v26.1h-6.9v-2.48c-.29,.47-.64,.9-1.05,1.28-1.5,1.5-4.12,1.95-6,1.95Zm-4.46-7.57c1.29,1.07,2.91,1.65,4.58,1.65,2.81-.03,5.38-1.62,6.65-4.13l.23-.45c.49-1.09,.74-2.26,.75-3.45v-.45c-.03-.98-.25-1.95-.66-2.85h.03c-.47-1-1.13-1.89-1.95-2.63-3.19-2.59-7.88-2.09-10.46,1.1-.35,.43-.64,.89-.89,1.38-.57,1.2-.88,2.5-.9,3.83v.45c.08,2.13,1.03,4.13,2.62,5.55Zm-61.94,3.64c.17,.15,.32,.33,.45,.52,.89,.88,1.94,1.59,3.08,2.1h.07c1.52,.63,3.15,.94,4.8,.9,.3,.02,.61-.01,.9-.08,2.83-.04,5.49-1.38,7.2-3.64v.02c.07,1,.22,2.48,.75,3h6.37c.07-.15,0-.38,0-.53,0-.08-.02-.17-.07-.23v-.23c-.23-1.42-.3-4.13-.38-6.53V16.64h-7v14c-.05,1.49-.43,2.96-1.13,4.28-1.13,1.56-2.94,2.5-4.87,2.52h-.52c-1.02-.06-2.01-.41-2.85-1-1.17-.78-2.02-1.95-2.4-3.3v-.08c-.19-.74-.31-1.49-.38-2.25,0-.2-.02-.4-.07-.6-.38-5.25,0-13.42,0-13.42l-.23-.08h-6.52c0,2.55,.08,12.22,0,13.87,.06,2.13,.39,4.25,1,6.3,.39,.94,.87,1.85,1.43,2.7,.15,.15,.22,.38,.37,.53Zm96.59-13.62l5,16.87h7l-8.55-25.64-.15-.53h-6.6l-.23,.53-8.47,25.64h6.9l5.1-16.87Zm-85.95-10.05c3.17-.1,6.02-1.99,7.35-4.87l-3.59-1.93c-.96,1.23-2.43,1.97-4,2-1.71,.07-3.34-.72-4.35-2.1l-3.45,1.88c1.36,3.2,4.57,5.2,8.04,5.02Zm-45.82,14.25h.03v-.53c0-1.43,.22-2.85,.67-4.2,1.73-5.55,6.38-9.67,12.45-9.6h.2c.08,0,4.58,0,7,3.08l.08,.07v-2.47h6.92v26.1h-6.9v-2.5c-.27,.47-.61,.9-1,1.28-1.58,1.5-4.2,2-6.08,2-7.28-.12-13.18-5.95-13.37-13.23Zm6.26-.37l.07,.45c.09,2.13,1.04,4.13,2.63,5.55,1.31,1.07,2.96,1.66,4.65,1.65,2.82-.02,5.4-1.61,6.67-4.13l.23-.45c.48-1.06,.73-2.21,.75-3.37v-.46c-.04-.98-.27-1.95-.68-2.84-.46-1.04-1.14-1.96-2-2.7-1.31-1.08-2.95-1.66-4.65-1.66-2.82,.02-5.39,1.62-6.67,4.13-.64,1.18-.98,2.49-1,3.83Zm64.54,4.42l1.73-2,8.7,10.5h8.12l-12.32-15.48,10.42-10.72h-7.8l-8.85,8.7v-8.7h-6.6v26.25h6.6v-8.55Zm-101.1,8.4h-1.27V1.37h22.72V7.97h-16.13v8.17h6.91s5-.08,8.39,2.7c3.44,2.36,5.57,6.19,5.78,10.35v.45c0,1.4-.22,2.79-.67,4.12-1.89,5.3-6.76,8.96-12.38,9.3-.3,.06-.6,.09-.9,.08h-12.45Zm5.32-6.5h7.51c2.15-.38,4.03-1.66,5.17-3.52,.63-1.04,.94-2.24,.9-3.45v-.45c-.17-1.99-1.18-3.81-2.78-5-.85-.61-1.82-1.05-2.84-1.27-.2-.1-.41-.18-.63-.21h-1.7l-5.63,.07v13.83Zm184.28,27.33v.02c0,2.7-2.18,4.88-4.88,4.88s-4.88-2.18-4.88-4.88,2.18-4.88,4.88-4.88c2.69,0,4.87,2.17,4.88,4.86Zm-.93,.02h-.07c0-2.15-1.75-3.9-3.9-3.9s-3.9,1.75-3.9,3.9,1.75,3.9,3.9,3.9c2.14,.06,3.91-1.63,3.97-3.77,0-.04,0-.09,0-.13Zm-69.18,17.18c1.25,1.15,1.95,2.77,1.93,4.47v.3c0,.89-.15,1.78-.45,2.62-1.46,3.48-4.78,5.81-8.55,6h-5.48l-3.52,.08h-7.2v-26.75h15c.37,0,1.2,0,2.25,.07,3.6,.53,6.75,3.75,6.75,6.9-.03,1.65-.76,3.2-2,4.28-.14,.21-.29,.41-.46,.6,.58,.41,1.14,.86,1.66,1.35l.07,.08Zm-15.84-3.53h7.42c.36-.05,.72-.15,1.05-.3,.78-.34,1.24-1.16,1.13-2-.1-.82-.61-1.52-1.35-1.88-.24-.1-.49-.17-.75-.22h-7.48l-.02,4.4Zm10.42,7.8c-.07-.86-.58-1.61-1.35-2-.08-.08-.15-.08-.23-.15l-.07-.08c-.15,0-.22-.07-.3-.07h-.23c-.81-.16-1.64-.24-2.47-.23h-5.62v6.3h5.87c.65,.02,1.31-.03,1.95-.15,.16,0,.31-.08,.46-.08,1.06-.3,1.83-1.24,1.92-2.34,0-.07,.07-.67,.07-.67v-.53Zm37.6,8.47c0-.08-.02-.16-.08-.22l-.08-.3c-.22-1.5-.3-4.35-.37-6.45v-19h-7.47v14.2c-.04,1.44-.4,2.85-1.05,4.13-1.09,1.49-2.81,2.37-4.65,2.4h-.52c-.97-.09-1.9-.44-2.7-1-1.1-.77-1.92-1.87-2.33-3.15v-.08c-.18-.69-.3-1.39-.37-2.1v-.07c.02-.18,0-.36-.08-.53v-.1c-.37-5.17,0-13.27,0-13.35v-.29h-7.2v.29c0,4.5,.08,12.38,0,13.88,.06,2.16,.42,4.31,1.05,6.38,.38,.96,.88,1.87,1.5,2.7,.15,.14,.3,.37,.45,.52,.15,.15,.3,.38,.45,.52,.92,.94,2.02,1.68,3.23,2.18h.07c1.52,.64,3.15,.94,4.8,.9h.08c.3,.02,.61-.01,.9-.08,2.62-.1,5.1-1.23,6.9-3.15,0,.88,.26,1.74,.75,2.48l.07,.07h6.9l-.07-.31c-.13-.16-.13-.32-.18-.47ZM109.33,59.72c4.88,0,9.23,3.45,11.1,8.7l.08,.3,6.9-2.93-.08-.23c-3.07-8.1-10.12-13.35-18-13.35-10.8,0-19.57,9.75-19.57,21.68s8.72,21.68,19.57,21.68c6.9,0,13.35-4.13,16.88-10.73l.22-.45-6.82-3.15-.15,.23c-2.25,4.12-6,6.59-10.13,6.59-6.6,0-12-6.37-12-14.17s5.4-14.17,12-14.17Zm147.1,17.69c1.19-2.49,3.69-4.09,6.45-4.12,2.73,.07,5.2,1.62,6.45,4.05l.07,.23,5.78-2.33-.08-.22c-2.91-6.92-10.87-10.17-17.79-7.27-3.87,1.62-6.77,4.94-7.86,8.99-.44,1.41-.67,2.87-.67,4.35v.55c.3,7.81,6.38,13.88,13.8,13.88,5.32-.05,10.14-3.17,12.37-8l.15-.23-5.7-2.32-.15,.3c-1.22,2.41-3.67,3.95-6.37,4-4.04-.12-7.28-3.39-7.35-7.43v-.6c0-1.33,.3-2.64,.9-3.83Zm-101.1,6.15v.23h-19.8c.38,2,1.58,3.45,3.83,4.72,3.46,1.52,7.51,.07,9.22-3.3l.15-.22,6.23,2.65-.15,.23c-1.41,3.03-3.86,5.45-6.9,6.82h-.08c-.3,.15-.6,.23-.9,.38l-.15,.07c-.25,.15-.53,.25-.82,.3l-.23,.08c-.28,.02-.55,.07-.82,.15l-.23,.07c-.29,.09-.59,.14-.9,.15h-.15c-.37,.06-.74,.09-1.12,.08-.3-.06-.6-.08-.9-.07h-.28c-.23,0-.45-.08-.68-.08-.12-.03-.25-.05-.37-.07-.2,.02-.41,0-.6-.08-.13,0-.26-.02-.38-.07-.15-.08-.3-.08-.45-.15l-.67-.23c-.15-.07-.23-.07-.38-.15-.16-.01-.31-.06-.45-.15-.15-.07-.22-.07-.3-.15-.29-.09-.56-.21-.82-.37l-.23-.08c-.13-.12-.28-.22-.45-.3l-.22-.18c-.3-.22-.53-.37-.83-.6l-.15-.07c-.15-.15-.3-.23-.45-.38l-.17-.15c-.29-.23-.57-.48-.82-.75l-.08-.07c-.1-.17-.22-.33-.37-.46l-.08-.14c-.42-.44-.79-.92-1.12-1.43l-.08-.15c-.36-.53-.7-1.08-1-1.65l-.15-.23c-.07-.07-.07-.22-.15-.29-.28-.55-.5-1.13-.67-1.73l-.08-.3c-.35-1.14-.55-2.33-.6-3.52v-.53c0-1.48,.24-2.94,.68-4.35,.16-.62,.38-1.23,.67-1.8l.08-.22c1.4-3.03,3.85-5.46,6.9-6.83,.32-.15,.66-.27,1-.37l.15-.08c.29-.13,.59-.23,.9-.3l.23-.07c.28-.02,.55-.07,.82-.15l.23-.08c.29-.08,.6-.13,.9-.15h.15c.37-.06,.75-.08,1.12-.07h1.2c.23,0,.45,.08,.68,.08,.12,.03,.25,.05,.37,.07,.2-.02,.41,0,.6,.08,.13,.03,.25,.05,.38,.07,.15,.08,.3,.08,.45,.15l.68,.23h.07c.1,0,.21,.02,.3,.07,.16,.02,.31,.07,.45,.15,.1,.04,.21,.09,.3,.15,.28,.11,.56,.24,.83,.38l.22,.07c.13,.13,.28,.23,.45,.3,.06,0,.11,.03,.15,.08l.75,.52c5.54,4.12,5.32,11.77,5.09,14.24Zm-6.3-5.25c-.65-1.78-1.86-3.31-3.45-4.34-.9-.39-1.87-.6-2.85-.61-2.74,.06-5.22,1.65-6.4,4.13-.15,.26-.28,.53-.37,.82h13.07Zm37.7-1.2c.39,1.42,.59,2.89,.6,4.36v.52c-.17,7.65-6.35,13.81-14,13.95-1.65,0-4.57-.3-6.37-2l-.63-.7v17h-7.7v-42.6h7.7v2.2c2.62-2.85,6.9-2.85,7-2.85h.46c5.92,0,10.94,3.97,12.89,10.12h.05Zm-6.22,4.58c-.02-1.34-.36-2.65-1-3.83-1.29-2.51-3.86-4.1-6.68-4.12-1.69,0-3.32,.59-4.64,1.65-.85,.74-1.52,1.66-1.95,2.7-.38,.91-.61,1.87-.68,2.85v.45c.02,1.16,.27,2.31,.75,3.37l.23,.46c1.29,2.5,3.85,4.09,6.67,4.12,1.69,0,3.33-.59,4.65-1.65,1.57-1.43,2.51-3.43,2.63-5.55v-.45h.02Zm100.88-15.82l.3,.29h-1.26l-.07-.07c-.1-.26-.15-.55-.15-.83v-.15c-.08-.52-.15-.67-.75-.67h-.75v1.72h-1.13v-4.52h2.18c1,0,1.57,.53,1.57,1.35,.02,.39-.15,.76-.45,1,.26,.27,.4,.63,.38,1v.15c0,.25,.05,.5,.15,.73h-.02Zm-1.06-2.7c0-.31-.07-.45-.67-.45h-.9l.07,.89h.75c.47,.03,.75-.07,.75-.44Z"/>
</svg>