<svg xmlns="http://www.w3.org/2000/svg" viewBox="0 0 764.75 223.61">
  <defs>
    <style>
      .a {
        fill: #fff;
      }
    </style>
  </defs>
  <title>energ</title>
  <path class="a" d="M0,187.77c1.31-1.69,2.65-3.35,3.93-5.07q8.4-11.31,16.78-22.64a1.67,1.67,0,0,1,.27-.18c1.43,1.5,2.85,3.05,4.33,4.53A75.23,75.23,0,0,0,58.38,184.3a68.24,68.24,0,0,0,14.77,2.45,69.53,69.53,0,0,0,36.43-7.84,71.07,71.07,0,0,0,25.93-22.64,72.65,72.65,0,0,0,11.83-27.64,78.72,78.72,0,0,0,1.6-15.15v-1.25c.42,0,.78-.09,1.14-.09h34c1.5,0,1.5,0,1.48,1.5a112.63,112.63,0,0,1-12.32,51.26,106.08,106.08,0,0,1-25.6,32.38,109.66,109.66,0,0,1-55.88,25.28,100.85,100.85,0,0,1-20.09.89c-23.81-1.35-44.85-9.83-63.2-25-2.62-2.16-5.07-4.52-7.59-6.79-.28-.25-.57-.48-.86-.72ZM0,36.41a6.07,6.07,0,0,1,.77.75q9.38,12.5,18.72,25c.57.77,1.18,1.51,1.85,2.37.2-.27.28-.4.38-.51A86.54,86.54,0,0,1,39.37,48.89,70.57,70.57,0,0,1,73.74,37.52a64.65,64.65,0,0,1,17.43,1.29c19.09,4.12,34,14.41,45,30.47a1.63,1.63,0,0,0,1.55.82q19.59,0,39.19,0c.36,0,.71,0,1.17-.08-.26-.7-.43-1.28-.67-1.82-1.56-3.42-3-6.92-4.73-10.25A107.78,107.78,0,0,0,84.93.26a99.9,99.9,0,0,0-18.3.37A104.56,104.56,0,0,0,49.25,4,112.79,112.79,0,0,0,2.78,30.56C1.88,31.41.93,32.2,0,33Zm217.11,70.74Q205.71,91,194.29,74.91a1.78,1.78,0,0,0-1.22-.57c-2.07,0-4.15,0-6.23,0H26.57c.31.45.45.67.61.87,7.74,10.23,15.52,20.44,23.2,30.71a4.24,4.24,0,0,0,3.88,2q80.37-.08,160.74,0h2.44C217.24,107.41,217.19,107.27,217.11,107.15Zm453.95,2.68q0,18.63,0,37.26c0,.53.08,1,.12,1.58a1.16,1.16,0,0,0,1.31,1.22c.49,0,1,.07,1.47.07h13a10.4,10.4,0,0,0,1.58-.1,1.48,1.48,0,0,0,1.37-1.42q.06-.74.06-1.47V87.51c0-1.51,0-3-.09-4.53-.17-3.76-2.11-5.65-5.86-5.71-2.57,0-5.14.09-7.7,0-3.19-.17-5.34,1.2-7,3.86-3.81,6.15-7.74,12.24-11.62,18.35l-11.9,18.71c-.31.49-.58,1.13-1.48.71V80.05a8.58,8.58,0,0,0,0-1.13c-.17-1.42-.43-1.67-1.87-1.67q-7.25,0-14.5,0c-2.08,0-2.54.45-2.54,2.51q0,31,0,62a17.8,17.8,0,0,0,.29,3.26c.59,3.18,2.44,4.79,5.69,4.9,2.52.09,5.06,0,7.58.07a7.44,7.44,0,0,0,7-3.76c5-7.7,10.17-15.33,15.16-23.06,2.92-4.53,5.62-9.2,8.43-13.81.3-.49.52-1.15,1.48-.75ZM27.66,150.07q53,0,105.91,0a1.36,1.36,0,0,0,1.41-.83c1.59-3.33,3.34-6.6,4.77-10a67.91,67.91,0,0,0,4.48-18.14c.19-1.5.21-3,.3-4.59-.53,0-.82-.06-1.12-.06q-45.19,0-90.39,0a2,2,0,0,0-1.78.89q-7.47,10-15,19.86L26.55,150C27.07,150,27.37,150.07,27.66,150.07Zm688.63-33.15c-.27.11-.55.22-.84.31a9.92,9.92,0,0,0-7.11,6.38c-.9,2.63-1.61,5.32-2.3,8-1.41,5.58-2.75,11.18-4.1,16.77-.29,1.21-.07,1.53,1.07,1.53,5.55,0,11.1.05,16.65,0,2.07,0,3-.89,3.49-2.88.89-3.66,1.71-7.34,2.63-11,.77-3.06,1.48-6.15,2.5-9.13,1.07-3.15,3.21-5.26,6.79-5.39,2.33-.08,4.67-.14,7-.17,1.65,0,1.65,0,1.65,1.59v24c0,.53,0,1.06,0,1.59,0,.85.35,1.36,1.27,1.35.34,0,.68.07,1,.07,4.83,0,9.67,0,14.5,0,2.15,0,2.59-.49,2.59-2.6V99.07c0-5.28.11-10.57,0-15.86-.12-4-1.39-5.37-4.35-5.87a12.29,12.29,0,0,0-1.92-.1c-9.55,0-19.11-.07-28.66.07a34.72,34.72,0,0,0-7.9,1.14,18.84,18.84,0,0,0-12.12,8.81c-3.25,5.53-3.59,11.51-2.29,17.61a14.52,14.52,0,0,0,9.89,11.4,7.8,7.8,0,0,1,.78.37C716.38,116.8,716.35,116.89,716.29,116.92Zm26.3-23c.82,0,1.15.27,1.15,1.11,0,3.39,0,6.79,0,10.18,0,.75-.25,1.09-1.05,1.08-3.73,0-7.47.07-11.2,0-2.41-.07-4.59-.94-5.64-3.29a6.57,6.57,0,0,1,1-7.21c1.16-1.45,2.86-1.73,4.58-1.8s3.7,0,5.54,0S740.71,93.92,742.59,93.88ZM411.46,79.41c0-2-.18-2.16-2.1-2.17q-7.49,0-14.95,0c-1.84,0-2.32.53-2.32,2.38,0,7.66,0,15.33,0,23,0,1.07-.28,1.42-1.39,1.41-6.87,0-13.74,0-20.62,0-1.48,0-1.48,0-1.48-1.48,0-7.78,0-15.55,0-23.33,0-1.59-.34-1.93-1.92-2-2.45,0-4.91,0-7.36,0-2.61,0-5.21,0-7.82,0-1.83,0-2.24.42-2.33,2.27,0,.26,0,.52,0,.79q0,32.79,0,65.58c0,.72-.05,1.44,0,2.15.11,1.34.57,1.85,1.93,1.86,5.36,0,10.72,0,16.08,0,.92,0,1.27-.52,1.38-1.3a10.38,10.38,0,0,0,0-1.25q0-12.91,0-25.82c0-1,.24-1.37,1.31-1.36q10.36.06,20.73,0c1.13,0,1.48.31,1.48,1.47-.05,8.61,0,17.21,0,25.82,0,2,.46,2.47,2.47,2.48,3.66,0,7.32,0,11,0,1.51,0,3,0,4.53-.06,1,0,1.42-.53,1.39-1.49,0-.49,0-1,0-1.48q0-16.65,0-33.3Q411.46,96.52,411.46,79.41Zm16.06,51.81a27.55,27.55,0,0,0,1.21,7.43c2.25,7.16,8.36,10.94,15.59,11.12,11.69.31,23.4.16,35.11.17,1.73,0,2.24-.58,2.25-2.35,0-4,0-7.93,0-11.9v-.45c0-1.07-.45-1.7-1.63-1.64-.83,0-1.66,0-2.49,0q-12.92-.06-25.83-.13c-3,0-4.56-1.53-4.71-4.49-.13-2.6-.08-5.2-.19-7.8,0-1.13.3-1.49,1.47-1.48,8.64,0,17.29,0,25.94,0,2.1,0,2.66-.54,2.67-2.69q0-5,0-10.08c0-.56-.13-1.12-.16-1.68,0-.77-.45-1.07-1.17-1.07s-1.28,0-1.92,0H449.41c-.5,0-1,0-1.48,0-.76,0-1.1-.28-1.07-1.07,0-1.09,0-2.19,0-3.28.13-3.63,1.36-5.46,4.11-6a14.68,14.68,0,0,1,3-.29c7.93,0,15.86,0,23.79,0,1.88,0,2.14-.25,2.15-2.16,0-3.93,0-7.86,0-11.78,0-2.26-.07-2.29-2.29-2.29q-15.06,0-30.13,0a32.41,32.41,0,0,0-4.51.27c-5.71.85-10.33,3.45-13.16,8.68a21,21,0,0,0-2.36,9.68c-.1,5.89,0,11.78,0,17.67S427.34,125.33,427.52,131.22Zm-115-26.33H293.62c-1.81,0-2.11.31-2.11,2.11,0,3.62,0,7.25,0,10.87,0,1.88.2,2.1,2.06,2.1h19c.48,0,1,0,1.74.09-.38,1.55-.65,3-1.1,4.34-1.66,5-4.86,8.36-10.31,9.09a26.42,26.42,0,0,1-10.33-.44c-3.34-.89-6.59-2.1-9.88-3.19-1.64-.55-2.21-.32-3,1.24-.87,1.84-1.75,3.67-2.61,5.52s-1.67,3.62-2.47,5.45a1.76,1.76,0,0,0,.92,2.46c1.18.65,2.35,1.35,3.58,1.93a50.18,50.18,0,0,0,31.32,3.75,27.29,27.29,0,0,0,19.76-14.62A44.75,44.75,0,0,0,334.92,119a54.74,54.74,0,0,0-1.21-20,30.13,30.13,0,0,0-8.39-14.75c-6-5.64-13.39-7.85-21.4-8a78.36,78.36,0,0,0-12,.88A30.31,30.31,0,0,0,280.52,81c-1.49.87-1.66,1.41-1,3q1.8,4.94,3.69,9.84c.89,2.28,1.34,2.48,3.66,1.74,4.69-1.5,9.42-2.72,14.41-2.39,3.47.23,6.7,1.05,9.22,3.66a13.21,13.21,0,0,1,3.57,8ZM493.4,147.17c0,2.32.45,2.78,2.78,2.79H510c2.83,0,2.93-.12,2.93-3,0-6.84,0-13.67,0-20.51,0-1,.22-1.31,1.25-1.29,3.51.06,7,.09,10.53,0a38.22,38.22,0,0,0,12-2c5.32-1.89,9.58-5,12.23-10.14a26.48,26.48,0,0,0,2.88-10,24.31,24.31,0,0,0-2.16-13.1c-4.11-8.39-11.38-12-20.28-12.53-5-.32-10-.09-15.07-.1s-10.27,0-15.4,0c-2.84,0-4.34,1.18-5,3.91a13.06,13.06,0,0,0-.41,3.23q0,15.63,0,31.27Zm19.53-39.44c0-4.23,0-8.45,0-12.67,0-.88.27-1.19,1.15-1.18,3.51,0,7,0,10.52,0,4,.07,6.58,2.56,7.13,6.48a8.33,8.33,0,0,1-2.48,7.72,12.9,12.9,0,0,1-3.57,1.75,2.81,2.81,0,0,1-1,0H512.93Zm50.25,14v19.6c0,2.19,0,4.38,0,6.57,0,1.38.5,1.89,1.88,2,.41,0,.83,0,1.25,0,4.49,0,9,0,13.48,0,2.76,0,2.77,0,2.77-2.76q0-22.14,0-44.29c0-1.55.08-3.09.17-4.64a4.52,4.52,0,0,1,3.48-4.35,13.45,13.45,0,0,1,3.46-.43c8.35,0,16.69,0,25,0,1.48,0,1.78-.18,1.85-1.65.12-2.63.11-5.28.11-7.92,0-1.85-.1-3.69-.16-5.54a1,1,0,0,0-1.14-1.09l-1.13,0c-10.31,0-20.62,0-30.93,0a33,33,0,0,0-6,.51A16.37,16.37,0,0,0,566.25,85a19.79,19.79,0,0,0-3,10.62c-.12,8.69,0,17.37,0,26.06ZM193.4,150c.32,0,.71-.36.93-.67q9.72-13.68,19.42-27.39l3.79-5.39a2.4,2.4,0,0,0-.43-.11q-13.25,0-26.49,0c-.71,0-.87.28-.9.94-.11,2.22-.27,4.43-.43,6.65a106.24,106.24,0,0,1-2.88,17.45c-.69,2.81-1.49,5.58-2.29,8.56C187.3,150.07,190.35,150.09,193.4,150Zm112.82,17.65c-.74,2-1.27,4.15-1.88,6.22,1.5.47,1.7.37,2.06-.92.28-1,.55-2,.81-2.94.74-2.8,1.27-3.21,4.17-3.19a3.49,3.49,0,0,0,.56,0c1.06-.17,1.38.28,1.34,1.32-.08,1.95,0,3.9,0,5.89h1.51c.07-.15.12-.21.12-.28,0-1.36,0-2.72,0-4.08.07-3.37-.57-2.83,3-2.84a2.53,2.53,0,0,1,2.81,2.11c.4,1.33.83,2.66,1.11,4,.24,1.17.83,1.37,2,1-.38-1.46-.77-2.9-1.13-4.34s-.68-3-2.58-3.52c2.42-1.9,2.11-4.61,2.95-6.91-1.24-.44-1.77-.05-1.94,1.07a22,22,0,0,1-.64,2.51,3,3,0,0,1-3.33,2.59,8.68,8.68,0,0,0-1,0c-1,.1-1.26-.33-1.23-1.25,0-1.65,0-3.29,0-5h-1.5c-.07.14-.12.2-.12.27,0,1.25,0,2.49-.05,3.74-.05,2.33.57,2.26-2.35,2.21a2.86,2.86,0,0,1-3.1-2.41,17.61,17.61,0,0,1-.72-2.72c-.17-1.19-.76-1.42-1.9-1,.78,2.33.56,5,2.69,6.7C307.24,166.57,306.46,167,306.22,167.69Zm377.55,2c-1.28-3.18-2.58-6.35-3.8-9.55a1.61,1.61,0,0,0-2.06-1.06c-.95.15-.73.93-.74,1.52q0,6.18,0,12.34c0,.37,0,.73.05,1.12h1.66V162.78l.31-.07c.15.32.31.63.45.95,1.06,2.54,2.13,5.07,3.16,7.62a1.4,1.4,0,0,0,1.46,1.09,1.48,1.48,0,0,0,1.6-1.08c1-2.64,2.1-5.24,3.17-7.85a8,8,0,0,1,.54-.95l.31.11v11.57l1.62-.12c0-4.57,0-9,0-13.47,0-.61.17-1.37-.76-1.51s-1.64,0-2,1.06c-1.14,3-2.39,6-3.59,9-.2.5-.42,1-.75,1.8C684.06,170.33,683.9,170,683.77,169.69Zm-402.55,0c-1.3-3.21-2.63-6.41-3.85-9.65-.4-1.08-1.15-1-2-1s-.68.85-.68,1.4c0,4.19,0,8.38,0,12.57,0,.5-.14,1.1.71,1.12s.83-.55.83-1.13c0-3,0-6,0-8.95a12.36,12.36,0,0,1,.14-1.35,1.6,1.6,0,0,1,.62.78c1.1,2.6,2.21,5.19,3.27,7.81a1.46,1.46,0,0,0,1.52,1.06,1.42,1.42,0,0,0,1.49-1.07c1-2.55,2.06-5.09,3.1-7.64.16-.39.35-.77.53-1.15l.3.06v1.18q0,4.59,0,9.17c0,1.34.18,1.46,1.57,1a1.65,1.65,0,0,0,.06-.32c0-4.49,0-9,0-13.48,0-.83-.32-1.09-1.15-1.11a1.44,1.44,0,0,0-1.57,1.1c-1.22,3.13-2.47,6.23-3.72,9.35-.16.4-.37.79-.68,1.42C281.51,170.34,281.35,170,281.22,169.68Zm58.4,7a7.63,7.63,0,0,1,.09-2c.29-1.25.09-2.1-1.39-2.15,0-.31-.05-.54-.05-.76,0-3.74,0-7.48,0-11.21,0-1.32-.19-1.5-1.51-1.51-2,0-4.08,0-6.12,0-.92,0-1.43.33-1.55,1.24-.21,1.57-.39,3.14-.65,4.69-.34,2.08-.69,4.15-1.14,6.2a1.75,1.75,0,0,1-1.57,1.56,1.06,1.06,0,0,0-.64.82c0,1.35.17,2.69.28,4.1h1.28c.1-.94.24-1.76.27-2.58,0-.63.27-.9.88-.9q4.69,0,9.4,0c.66,0,1,.31,1,1s0,1.58,0,2.45C339.15,177.91,339.68,177.8,339.62,176.71Zm-9.08-15.29c.09-.68.39-.9,1-.89,1.36,0,2.72,0,4.08,0,.67,0,.93.31.93,1,0,3.4,0,6.79,0,10.19,0,.33-.4.92-.62.93-2.4.07-4.8,0-7,0C329.5,168.83,330,165.13,330.54,161.42Zm93.37,9.7c0-3.55,0-7.09,0-10.64,0-1-.36-1.46-1.4-1.44-2.11,0-4.23,0-6.34,0a1.24,1.24,0,0,0-1.45,1.21c-.28,2.16-.53,4.33-.89,6.48a37.7,37.7,0,0,1-1.12,4.81c-.14.47-.89.73-1.33,1.13-.27.24-.66.56-.66.83,0,1.39.16,2.77.26,4.18h1.27c.13-1.14.25-2.22.37-3.28a2.16,2.16,0,0,1,.49-.18c3.28,0,6.56,0,9.85,0,.27,0,.73.58.78.94a16,16,0,0,1,0,2.39c1,.35,1.5.15,1.47-.84a17.08,17.08,0,0,1,.09-2.26c.16-1.57.17-1.58-1.44-2Zm-7.74-9.58c.1-.78.39-1,1.14-1,1.28,0,2.56,0,3.85,0,.69,0,1,.2,1,1,0,3.39,0,6.79,0,10.19,0,.32-.41.92-.64.93-2.4.07-4.8,0-7,0C415.13,168.88,415.69,165.22,416.17,161.54Zm334.69-1.33c0-.75-.27-1.17-1.14-1.17a1.56,1.56,0,0,0-1.56.82Q745.09,165,742,170.13c-.27.46-.55.91-.83,1.37l-.37-.1V159.14H739c0,4.72,0,9.32,0,13.92,0,.36.37,1,.6,1a4.62,4.62,0,0,0,1.78-.34c.23-.08.36-.47.51-.73l5.79-9.71,1-1.68a2.33,2.33,0,0,1,.38,1.34c0,3.29,0,6.57,0,9.85,0,1.43.15,1.54,1.72,1.15C750.86,169.34,750.87,164.78,750.86,160.21ZM629.37,172.93c.14-.81.41-1.6.62-2.4a4.61,4.61,0,0,1,6.71-2.62v6.26l1.77-.1V159.92c0-.71-.43-.87-1-.87-1.77,0-3.54,0-5.31,0a4.14,4.14,0,0,0-4.06,3,4.19,4.19,0,0,0,1.86,4.78,2.13,2.13,0,0,1,.35.38c-2.52,1.63-2.13,4.42-3.09,6.73C628.51,174.4,629.16,174.11,629.37,172.93Zm2.69-6.9a2.63,2.63,0,0,1-2.41-2.57,2.59,2.59,0,0,1,2.3-2.76,27.5,27.5,0,0,1,4.06-.11c.22,0,.6.44.61.69.06,1.54,0,3.08,0,4.77C635,166.05,633.51,166.14,632.06,166Zm-164.88,7.28q0-6.57,0-13.14c0-.73-.25-1.13-1.05-1.12-1.89,0-3.78-.05-5.67,0a4.24,4.24,0,0,0-1.38,8c-2.64,1.72-2.3,4.51-3.15,6.84,1.31.45,1.92.1,2.14-1.07.18-1,.5-2,.76-3a2.79,2.79,0,0,1,2.57-2.33c1.27-.1,2.55,0,4,0v6.56C466.2,174,467.18,174.73,467.18,173.31ZM460.81,166a2.59,2.59,0,0,1-2.45-2.64,2.52,2.52,0,0,1,2.25-2.67,26,26,0,0,1,4.05-.14.87.87,0,0,1,.64.56c.05,1.61,0,3.22,0,4.91C463.73,166.06,462.26,166.15,460.81,166Zm294.85,6.85c.28-1,.56-2,.87-3a2.86,2.86,0,0,1,3.05-2.32c.79,0,1.59,0,2.38,0s1.1.33,1.08,1.13c0,1.55,0,3.1,0,4.64,0,.64.24.88.87.88s.87-.26.86-.88q0-6.63,0-13.24c0-.8-.38-1-1.13-1-1.73,0-3.46,0-5.2,0a4,4,0,0,0-4,5.33,13.24,13.24,0,0,0,1.9,2.94c-2.31,1.45-1.86,4.31-2.88,6.66C755.27,174.32,755.27,174.31,755.66,172.89Zm4.67-6.8c-.53,0-1.06,0-1.58,0a2.56,2.56,0,0,1-2.68-2.35c-.14-1.74.56-2.81,2.26-3a20.62,20.62,0,0,1,3.93-.09c.27,0,.67.52.73.85a10.12,10.12,0,0,1,0,1.91C763,166.09,763,166.09,760.33,166.09Zm-190.1,3.73a18.23,18.23,0,0,0,.23-5.47,5.79,5.79,0,0,0-5.24-5.5,6,6,0,0,0-6.83,4.29,11.53,11.53,0,0,0-.26,6.35c.72,3.36,2.65,4.9,6,4.93S569.51,173,570.23,169.82Zm-8.36-8.76a4.23,4.23,0,0,1,6.26,1.57,9.65,9.65,0,0,1,0,7.91c-.81,1.87-2.47,2.53-4.47,2.34a3.8,3.8,0,0,1-3.54-2.86,30.19,30.19,0,0,1-.62-3.31C559.61,164.51,559.94,162.45,561.87,161.06Zm111.79,8.65a12.27,12.27,0,0,0,.09-5.93c-.7-3-2.69-4.81-5.4-4.94-3.44-.16-5.71,1.21-6.59,4.43a16.84,16.84,0,0,0-.42,5.35c.21,3.67,2.48,5.71,6.09,5.79C670.83,174.48,672.79,173,673.66,169.71Zm-1.94.18a4.06,4.06,0,0,1-4.37,3,3.77,3.77,0,0,1-4-3.18,17.4,17.4,0,0,1-.14-5.34,4.41,4.41,0,0,1,4.74-4.06c2.41.19,4,1.91,4.16,4.67,0,.52,0,1.05,0,1.58l.18,0A30,30,0,0,1,671.72,169.89Zm-274.83-.3a5.51,5.51,0,0,0,5.68,4.81c3.43.12,5.5-1.27,6.4-4.34a12.4,12.4,0,0,0,.15-6.37,6.14,6.14,0,0,0-9.74-3.73c-2.29,1.68-2.78,4.17-2.84,6.84C396.65,167.73,396.7,168.68,396.89,169.59Zm2.16-6.59a4.23,4.23,0,0,1,4.4-2.69,4.09,4.09,0,0,1,3.86,3.51,11.5,11.5,0,0,1-.05,5.68,4.23,4.23,0,0,1-4.65,3.39,4.12,4.12,0,0,1-4-3.59c-.18-.88-.23-1.79-.38-3A22.45,22.45,0,0,1,399.05,163Zm336.41,9.92q0-6.27,0-12.55v-1.23h-1.65c0,.48-.06.88-.06,1.29,0,1.36,0,2.72,0,4.07,0,.31-.36.86-.56.87-2.44.06-4.88,0-7.48,0v-6.28h-1.76c0,.39-.08.72-.08,1.06v12.55c0,1.55.3,1.74,1.81,1.18a1,1,0,0,0,.05-.22c0-1.89.06-3.77,0-5.66,0-.92.32-1.18,1.18-1.16,1.77,0,3.54,0,5.31,0,1.56,0,1.58,0,1.58,1.59V174C735.34,174.36,735.46,174.28,735.46,172.92Zm-134.38-5c0-.79.27-1.07,1-1.06,1.77,0,3.55,0,5.32,0s1.71,0,1.71,1.76v5.41h1.62V159.18h-1.62c0,1.77,0,3.43,0,5.09,0,.86-.22,1.23-1.15,1.17-1.2-.08-2.41,0-3.62,0h-3.34v-6.27h-1.77V174.1h1.81C601.09,172,601.12,170,601.08,168Zm-84.51,5c0-1.51,0-3,0-4.52s0-1.53,1.57-1.54,3.09,0,4.64,0c1.84,0,1.84,0,1.84,1.86v5.31h1.61v-15l-1.61.07c0,1.47,0,2.82,0,4.17,0,2.57.11,2.1-2.1,2.13-1.94,0-3.89,0-6,0v-6.26h-1.77v14.93h1.73C516.53,173.69,516.57,173.33,516.57,173Zm-78.7-8.57c0,.78-.25,1.08-1.05,1.05-1.28-.05-2.56,0-3.85,0h-3.21v-6.26c-1.84-.2-1.84-.2-1.84,1.46v12.12c0,1.53.3,1.73,1.87,1.19V171c0-1,0-2,0-3.06,0-.79.28-1.08,1.05-1.06,1,0,2,0,2.94,0,1.27,0,2.55.09,3.82.14.09,1.3.2,2.59.26,3.89,0,1,0,2.08,0,3.13h1.61V159.13h-1.62C437.85,160.93,437.83,162.66,437.87,164.39Zm267-2.62c0,3.82,0,7.63,0,11.44,0,.65.18,1,.89,1s1-.14,1-.88c0-4.27,0-8.53,0-12.8,0-1-.45-1.49-1.54-1.47-2.83.05-5.66,0-8.49,0-1.3,0-1.57.28-1.57,1.61q0,6.34,0,12.69c0,.22,0,.44,0,.63,1.55.35,1.65.28,1.67-1.17v-1c0-3.36,0-6.72,0-10.08,0-.56-.07-1.19.81-1.19h7.23ZM356.6,167.93c0-.7.23-1,1-1,2,0,4.07,0,6.11,0,.8,0,1,.35,1,1.11,0,1.62,0,3.24,0,4.87,0,.61-.2,1.32.87,1.31s.82-.67.82-1.25v-12.8c0-.33-.05-.66-.07-1h-1.65v6.17h-8.09v-6.15H355a6,6,0,0,0-.11.85q0,6.51,0,13c0,1.19.22,1.31,1.74,1C356.61,172,356.63,170,356.6,167.93Zm198,5.82q0-6.8,0-13.59c0-.8-.44-1.11-1.22-1.11-2.87,0-5.74,0-8.61,0-1.45,0-1.63.16-1.64,1.62,0,4.11,0,8.23,0,12.34,0,.69.08,1.16,1,1.16s.79-.6.79-1.16c0-3.69,0-7.39,0-11.09,0-1,.22-1.49,1.36-1.43,1.77.09,3.55.08,5.32,0,1.06-.05,1.45.27,1.43,1.38-.06,3.62,0,7.25,0,10.87v1.36h1.54A1.83,1.83,0,0,0,554.61,173.75Zm-173.33-.05c-1.6-4.58-3.21-9.16-4.79-13.75-.28-.81-.82-.91-1.57-.93s-1.13.43-1.35,1.08l-2.83,8.1-2,5.71c1.54.5,1.86.36,2.3-.91.18-.5.37-1,.5-1.5a1,1,0,0,1,1.14-.82c1,0,2,0,3.06,0,3.1.05,2.31-.47,3.34,2.32.47,1.27.81,1.42,2.18.91C381.26,173.85,381.3,173.76,381.28,173.7Zm-6.46-12.58h.37l2.55,7.9h-5.43Zm346.6,12.44c-1.6-4.58-3.21-9.16-4.79-13.74-.26-.73-.76-.77-1.41-.8a1.19,1.19,0,0,0-1.36.87c-.9,2.63-1.83,5.25-2.75,7.87-.74,2.08-1.47,4.16-2.21,6.25,1.8.35,1.85.32,2.39-1.23.13-.39.29-.78.4-1.17a1.09,1.09,0,0,1,1.28-.94c1.06.07,2.11,0,3.17,0,2.79.06,2.11-.48,3.08,2.19.52,1.43.66,1.52,2.25,1.11A1.54,1.54,0,0,0,721.42,173.56Zm-8.93-4.5c.88-2.75,1.71-5.36,2.55-8l.35,0c.83,2.59,1.67,5.17,2.56,7.95Zm-258.24,4.11c-1.48-4.23-3-8.45-4.45-12.68-.29-.82-.49-1.48-1.64-1.5s-1.32.79-1.59,1.54c-1.46,4.12-2.9,8.24-4.35,12.36-.11.34-.19.7-.28,1.05,1.62.49,1.75.42,2.23-1,.17-.49.39-1,.52-1.49a1,1,0,0,1,1.16-.79c1.06,0,2.11,0,3.17,0,2.34,0,2.34,0,3.16,2.24.5,1.37.62,1.43,2.29,1.06C454.38,173.66,454.34,173.41,454.25,173.17ZM450.88,169h-5.42l2.5-7.89.38,0C449.16,163.69,450,166.25,450.88,169Zm170-9.11c-.3-.87-.9-.82-1.6-.86s-1,.4-1.26,1q-2.31,6.61-4.63,13.21a4.42,4.42,0,0,0-.12.8c1.34.41,2.05,0,2.29-1.3.07-.4.26-.78.37-1.18a1.06,1.06,0,0,1,1.22-.89c1.06,0,2.11,0,3.17,0,2.35,0,2.35,0,3.15,2.25.47,1.36.81,1.51,2.33,1C624.15,169.23,622.49,164.57,620.88,159.89Zm-1.62,1.21.35,0c.83,2.56,1.65,5.11,2.55,7.88h-5.4ZM502.15,172.81c.12-.36.26-.71.35-1.07a1.2,1.2,0,0,1,1.43-1.07c1,.08,2,0,3.06,0,2.35,0,2.35,0,3.1,2.16.51,1.46.78,1.59,2.35,1.09q-2.51-7.14-5-14.26c-.28-.8-.93-.72-1.49-.59s-1,.39-1.15.75c-.86,2.2-1.61,4.45-2.39,6.69l-2.64,7.52C501.63,174.3,501.63,174.3,502.15,172.81Zm1.22-3.75c.88-2.77,1.71-5.37,2.53-8h.36l2.55,8Zm153-8.91a20.55,20.55,0,0,1-.67,2.62c-.57,2-1.39,2.58-3.41,2.6-.45,0-.91,0-1.36,0-.88.07-1.19-.28-1.15-1.18.06-1.68,0-3.37,0-5h-1.63v14.93h1.62c0-.48,0-.88,0-1.29,0-1.66,0-3.32,0-5,0-.31.33-.88.52-.89a27.06,27.06,0,0,1,3.71.11,2.11,2.11,0,0,1,1.79,1.68c.41,1.41.78,2.83,1.17,4.24s.5,1.39,2.09,1.08c-.36-1.3-.72-2.59-1.07-3.89-.43-1.62-.6-3.39-2.67-4,2.37-1.87,2.11-4.54,3-6.85C657.08,158.82,656.56,159.11,656.38,160.15Zm-165.85,12.7c0-1.24.06-2.49,0-3.73-.05-.94.33-1.18,1.19-1.15,1.24.05,2.49,0,3.73,0,2.33-.08,4-1.93,4.13-4.54a4.3,4.3,0,0,0-3.79-4.35c-2-.1-4,0-6-.05-.6,0-.91.24-.91.87,0,4.68,0,9.35,0,14.08C490.44,174.31,490.52,174.25,490.53,172.85Zm2.91-12.3a9.64,9.64,0,0,1,2,.18,2.68,2.68,0,0,1,2.25,2.81,2.46,2.46,0,0,1-2.2,2.78,27.5,27.5,0,0,1-4.26.17c-.23,0-.62-.48-.66-.78a16.88,16.88,0,0,1,0-2.25C490.54,160.54,490.54,160.53,493.44,160.55Zm82.05,8.53c0-.85.3-1.13,1.12-1.1,1.24,0,2.49,0,3.73,0a4.39,4.39,0,0,0,4.21-4.66,4.27,4.27,0,0,0-4.23-4.25c-1.74,0-3.47,0-5.2,0-1,0-1.31.36-1.3,1.32,0,3.32,0,6.63,0,10v3.78h1.68C575.51,172.31,575.54,170.69,575.49,169.08Zm3-8.53a9.33,9.33,0,0,1,1.9.17,2.65,2.65,0,0,1,2.28,2.88,2.5,2.5,0,0,1-2.25,2.77,26.43,26.43,0,0,1-4.27.11c-.22,0-.58-.45-.61-.72a21.08,21.08,0,0,1,0-2.25C575.51,160.53,575.51,160.53,578.5,160.55Zm-193.12,12.3c0-1.29,0-2.57,0-3.85,0-.81.3-1.05,1.06-1,1.28,0,2.56,0,3.85,0,2.39-.08,4-2,4-4.67a4.08,4.08,0,0,0-4.06-4.23c-1.77,0-3.55,0-5.32,0-.95,0-1.25.35-1.23,1.27.05,1.69,0,3.39,0,5.08V174C385.31,174.31,385.38,174.26,385.38,172.85Zm3-12.3a10.55,10.55,0,0,1,2,.19,2.8,2.8,0,0,1,2.18,2.8,2.49,2.49,0,0,1-2.14,2.76,27.94,27.94,0,0,1-4.39.18c-.21,0-.57-.44-.6-.7a19.08,19.08,0,0,1,0-2.27C385.38,160.53,385.38,160.52,388.36,160.55Zm-94.07,2.22c0-1.71.5-2.22,2.22-2.23s3.33,0,5,0c.53,0,1,0,1-.74s-.45-.75-1-.75c-1.85,0-3.7,0-5.54,0a3,3,0,0,0-3.32,3.19c-.06,3-.05,6,0,8.94a2.77,2.77,0,0,0,2.9,2.94c2,.06,3.93,0,5.89,0,.54,0,1.08,0,1.08-.78s-.57-.73-1.09-.73c-1.73,0-3.47,0-5.2,0-.9,0-1.76-.3-1.84-1.31-.11-1.44,0-2.9,0-4.52h7.15c.32-1.09,0-1.45-1-1.42-2,.06-4,0-6.2,0Zm52.59,6c-.15-.33-.32-.65-.45-1-1-2.51-2.08-5-3-7.55-.44-1.21-1.15-1.37-2.3-1.07.16.43.29.81.44,1.18,1.12,2.68,2.22,5.36,3.39,8a16,16,0,0,0,1.52,2.27c-.82,2.54-.69,2.42-3.89,2.58-.05.15-.11.32-.15.49s-.06.36-.09.53a3.52,3.52,0,0,0,5.13-1.68c1.15-2.82,2.19-5.68,3.29-8.53.61-1.6,1.23-3.2,1.84-4.81-1.22-.4-1.83-.07-2.2,1.09-.6,1.89-1.36,3.74-2.07,5.6-.37,1-.75,1.94-1.13,2.91Zm190.14,4a4.53,4.53,0,0,1-5.29-3,9,9,0,0,1,.33-6.71,4,4,0,0,1,4-2.57c1,.05,1.92.34,2.88.4a1.54,1.54,0,0,0,1-.58c.09-.11-.14-.71-.36-.81-2.48-1.15-6.58-1.14-8.55,1.81a10.13,10.13,0,0,0-1.43,7.34c.31,2.28,1.07,4.33,3.38,5.2a9.55,9.55,0,0,0,7.71-.48c-.24-.54-.43-.94-.6-1.33C539,172.33,538,172.63,537,172.8Zm-61.47-13.66v1.38c1.2,0,2.33,0,3.45,0,.79,0,1.05.27,1,1.06,0,3.43,0,6.87,0,10.31V174c1.69.46,1.86.34,1.87-1.19,0-3.74,0-7.47,0-11.21,0-.79.25-1.08,1-1.05,1.19.05,2.39,0,3.64,0v-1.38Zm113.53,1.36c1-.08,1.53.24,1.44,1.37s0,2.11,0,3.17c0,2.68,0,5.36,0,8,0,.69.13,1.16,1,1.11s.75-.55.75-1.1c0-3.81,0-7.62,0-11.43,0-.92.31-1.2,1.18-1.16,1.16.06,2.32,0,3.49,0v-1.35h-11v1.35C587,160.52,588,160.58,589.08,160.5Z"/>
</svg>
