<?xml version="1.0" encoding="UTF-8"?>
<svg id="_Слой_1" data-name="Слой 1" xmlns="http://www.w3.org/2000/svg" viewBox="0 0 286.23 65.75">
  <defs>
    <style>
      .cls-1 {
        fill: #fff;
        fill-rule: evenodd;
      }
    </style>
  </defs>
  <path class="cls-1" d="M48,44.44L23.02,25.88l6.06-10.49,21.43,24.73-2.51,4.32Zm-1.34,2.33L21.67,28.22l-6.11,10.57,28.59,12.37,2.51-4.39Zm8.43-14.57L37.24,1.25l-6.69,11.71,21.42,24.72,3.13-5.48Zm-12.31,21.29l-28.55-12.36-6.07,10.51,32.12,6.17,2.51-4.32Zm-36.04,.59L0,65.75H35.7l3.16-5.48L6.73,54.09Zm32.06,11.66h9.5l8.34-14.46,8.34,14.46h9.5l-17.84-30.9-17.84,30.9Zm67.82-31.42v-6.67h-26.65v6.67h-5.18v-11.66h3.27L91.08,0h4.44l13.01,22.67h3.26v11.66h-5.18Zm-4.88-11.66l-8.63-14.99-8.58,14.99h17.21Zm159.21-3.89h17.34l2.9-5h-20.24v5Zm0,8.89h12.28l2.84-4.99h-15.12v4.99Zm0-22.7v5h22.4l2.89-5h-25.29Zm-49.06,22.67h-14.93V4.96h14.69c2.78,0,6.73,.55,6.73,5.24,.16,1.79-.92,3.46-2.62,4.05-.01,0-.03-.01-.04-.01v.03s.03-.01,.04-.02c2.23,.68,4.4,2.31,4.4,6.17,0,3.44-1.42,7.22-8.27,7.22Zm-9.56-13.89h8.7c.08,0,.15,0,.23-.01,1.01-.11,1.74-1.01,1.63-2.02,0-1.3-.56-1.98-1.86-1.98h-8.7v4.01Zm0,9.07h9.57v.04c1.97,0,2.65-.86,2.65-2.46,0-2.04-1.14-2.41-2.65-2.41h-9.57v4.84Zm36.74,4.85h-13.6V4.96h5.43V13.1h8.25c2.53,0,7.47,.12,7.47,7.16,0,5.37-3.86,7.4-7.56,7.4Zm-.21-4.81c1.17,0,2.34-.44,2.34-2.52,0-2.28-1.42-2.53-2.34-2.53h-7.96v5.06h7.96Zm10.55,4.81h5.37V4.96h-5.37V27.67Zm-113.46-13.89h-20.24v5h17.34l2.9-5Zm-5.12,8.89h-15.11v4.99h12.28l2.83-4.99Zm10.18-17.71h-25.29v5h22.4l2.89-5Zm17.27,22.7h6.73l-13.01-22.7h-4.32l-13.01,22.7h6.41l8.58-14.99,8.64,14.99Zm20.43,.31c-9.2,0-13.39-5.3-13.39-11.79s4.32-11.78,13.39-11.78,13.27,5.3,13.27,11.78c0,9.94-9.26,11.79-13.27,11.79Zm-.06-4.99c3.82,0,7.47-1.85,7.47-6.73,0-4.09-1.91-6.8-7.47-6.8-4.93,0-7.47,2.73-7.47,6.8,0,3.7,2.22,6.73,7.47,6.73Zm-55.77,19.49l-13.02,22.7h6.42l8.58-14.99,8.64,14.99h6.73l-13.02-22.7h-4.31Zm112.41,14.74v-14.75h-5.43v22.71h4.56l13.08-14.86v14.86h5.43v-22.71h-4.81l-12.84,14.75Zm-29.24,0v-14.75h-5.43v22.71h4.56l13.09-14.86v14.86h5.43v-22.71h-4.81l-12.83,14.75Zm-58.18-.12v-14.62h-5.44v22.7h4.57l13.08-14.74v14.74h5.43v-22.7h-4.56l-13.08,14.62Zm41.15-5.8h-11.9v-8.82h-5.43v22.7h5.43v-8.89h11.9v8.89h5.43v-22.7h-5.43v8.82Z"/>
</svg>