<svg xmlns="http://www.w3.org/2000/svg" viewBox="0 0 270.37 167.67"><defs><style>.a{fill:#eb7932;}.b{fill:#231600;}</style></defs><title>ant</title><path class="a" d="M84.57,101.78A27.84,27.84,0,0,0,74,108.37a22.11,22.11,0,0,0-6.26,12.44,17.86,17.86,0,0,0,.09,6,10.67,10.67,0,0,0,3,5.55,17.94,17.94,0,0,0,5.74,3.83,28.32,28.32,0,0,0,8.69,2.18A38.85,38.85,0,0,0,99.32,137a44,44,0,0,0,11.21-4.71,32.27,32.27,0,0,0,4.2-3c.25-.22.46-.51.81-.57.29.14.21.38.21.59,0,1.28,0,2.56,0,3.84l-.24,19c0,1.9-.07,3.81-.11,5.72,0,.18,0,.37,0,.57a12.43,12.43,0,0,1-1.87,1.08,48.42,48.42,0,0,1-11.63,4.14A64.84,64.84,0,0,1,91.33,165a58.27,58.27,0,0,1-5.91.08c-2.34-.12-4.68-.28-7-.55a66.16,66.16,0,0,1-8-1.48,69.17,69.17,0,0,1-7.72-2.31,58.89,58.89,0,0,1-15.86-8.59,42.09,42.09,0,0,1-10.66-11.86,35.62,35.62,0,0,1-4.58-12.62,38.63,38.63,0,0,1-.49-8,37.48,37.48,0,0,1,3.42-14,43.22,43.22,0,0,1,9.44-13,58.44,58.44,0,0,1,11.6-8.54A78.88,78.88,0,0,1,73,76.9c3-.86,6-1.56,9.13-2.12q3.73-.68,7.51-1.07c2.68-.28,5.36-.47,8-.53a.52.52,0,0,0,.16-.06c.07-.16-.07-.22-.16-.28a73.73,73.73,0,0,1-7.38-5.79C86.08,63.35,82,59.43,78,55.52Q72.22,50,66.38,44.45A77.69,77.69,0,0,0,58.68,38a19.7,19.7,0,0,0-4.53-2.63l-.3-.09a1.1,1.1,0,0,0-.31.15,28.8,28.8,0,0,1-5.92,3.41A99,99,0,0,1,35.2,43.37c-4,1.2-8,2.21-12.08,3.08A92.29,92.29,0,0,1,13.78,48c-1.64.18-3.3.28-4.95.33A11.86,11.86,0,0,1,5.47,48a4.85,4.85,0,0,1-1.29-.52,1.38,1.38,0,0,1-.51-2,8,8,0,0,1,.93-1.29A21.23,21.23,0,0,1,8,41.35,2.55,2.55,0,0,1,9,41l7.31-1.68c3-.69,6-1.38,9.06-2l18.3-4.07c3.51-.78,7-1.54,10.52-2.34a1.91,1.91,0,0,1,1.51.24A61.62,61.62,0,0,1,62.82,36c3,2.32,5.77,4.81,8.52,7.36,4.2,3.89,8.24,7.95,12.34,11.94,2.6,2.53,5.22,5,7.88,7.52a102.23,102.23,0,0,0,10.53,8.73c1.18.83,2.4,1.59,3.61,2.37a8.37,8.37,0,0,0,2,.93c1.05.33,2.07.7,3.11,1l.63.19a2.8,2.8,0,0,0-.18-.51c-2.46-4.43-4.94-8.84-7.38-13.29-1.65-3-3.23-6.07-4.83-9.12q-2.53-4.86-5-9.75Q91.48,38.32,89,33.24q-4.35-8.75-8.68-17.48c-.94-1.91-1.89-3.81-2.8-5.73a1.58,1.58,0,0,0-1.16-.95,17.17,17.17,0,0,0-6.06-.36A29.25,29.25,0,0,0,63,10.64c-3.27,1.27-6.37,2.9-9.5,4.48-2.65,1.34-5.29,2.7-8,3.85a41.29,41.29,0,0,1-6.21,2.11,22.14,22.14,0,0,1-7.16.64,17.58,17.58,0,0,1-5.79-1.47c-.6-.27-1.2-.55-1.79-.84a3.24,3.24,0,0,1-.69-.47,1,1,0,0,1-.15-1.35,4.51,4.51,0,0,1,.91-.94,16.33,16.33,0,0,1,1.73-1.1,42.89,42.89,0,0,1,6.12-2.63A147,147,0,0,1,49,8.25c2.56-.58,5.12-1.12,7.71-1.6s5.11-.87,7.68-1.23c1.94-.28,3.9-.52,5.86-.67a50.18,50.18,0,0,1,9.09-.06c.22,0,.43.07.65.1,1,.14.86,0,1.32,1,1.14,2.64,2.23,5.3,3.39,7.93C87.1,19.29,89.53,24.82,92,30.3q5.44,11.86,11.59,23.36c3.44,6.39,7,12.69,10.92,18.82,1.14,1.8,2.31,3.58,3.45,5.37a3.3,3.3,0,0,0,1,1,82.72,82.72,0,0,1,8.42,6.26,41.5,41.5,0,0,1,7.42,8.18c.12.18.25.35.38.53a.71.71,0,0,0,.15.07,4.68,4.68,0,0,0,.53-.24l6.32-3.69c.21-.12.4-.32.72-.19a6.19,6.19,0,0,1,0,.63c0,3.16.08,6.31.1,9.47q.06,7.89.11,15.77.08,11.35.18,22.71t.19,22.89v1.83a3.4,3.4,0,0,1-.53.08c-.88,0-1.76,0-2.63,0l-16.14.11H120a5.86,5.86,0,0,1-.61,0,1.42,1.42,0,0,1-.15-.95c0-3,0-6-.06-9q-.09-11.25-.19-22.52c0-3.63-.09-7.25-.11-10.88a13.21,13.21,0,0,0-.45-2.87,23.66,23.66,0,0,0-3-7.53,20.64,20.64,0,0,0-11-8.66c-1-.37-2.1-.61-3.15-.89a3,3,0,0,0-.53,0c0,.28.22.35.37.44a7.85,7.85,0,0,1,3.58,5.49,9.05,9.05,0,0,1-.38,4.35,13.43,13.43,0,0,1-3,5,17.57,17.57,0,0,1-10.94,5.63,11.91,11.91,0,0,1-7.47-1.25,7.93,7.93,0,0,1-4.27-6.14,9.78,9.78,0,0,1,.91-5.38,14.6,14.6,0,0,1,3.75-5,6.49,6.49,0,0,1,1.2-1,.37.37,0,0,0,.39-.34s0,0,.07,0,0,0,0,0l-.08.08Zm.36-.06-.36.06a2.51,2.51,0,0,1,0,.27.37.37,0,0,0,.39-.34Zm0,0s0,0,.07,0,0,0,0,0l-.08.08Z"/><path class="b" d="M215.74,120.73l0,0v0h0Z"/><path class="b" d="M263.72,158q-.33-2.7-.65-5.4c-.22-1.77-.42-3.54-.63-5.31a3.76,3.76,0,0,0-.19-.6l-.69.17a35.58,35.58,0,0,1-5.41,1.12,9.68,9.68,0,0,1-3-.06,3.79,3.79,0,0,1-3.26-3.28,14.5,14.5,0,0,1-.21-2.71q0-10.14-.05-20.27c0-.24,0-.48.05-.78l1.05,0,11.54,0a1.36,1.36,0,0,0,.92-.13c0-.11,0-.23,0-.36q0-7.59,0-15.2a2.79,2.79,0,0,0-.09-.48H249.87s-.05,0-.08,0l-.15-.1V93.69c0-.91,0-1.81,0-2.72s0-1.81,0-2.72,0-1.82,0-2.72a24.56,24.56,0,0,0-.05-2.71c-.79.23-23.84,10.87-24.62,11.37v7c0,.56,0,1.13,0,1.69a11.13,11.13,0,0,1-.05,1.81h-8.3c-.23,0-.5-.09-.74.15a3.08,3.08,0,0,0,0,.33c0,4.76,0,9.51,0,14.27,0,.42,0,.85-.06,1.28a1.58,1.58,0,0,0,1,.14l7.22,0,1,0c0,.4,0,.74,0,1.07v17.55c0,2.19,0,4.38.16,6.57a40,40,0,0,0,.79,5.75,14.45,14.45,0,0,0,2.18,5.14,14.1,14.1,0,0,0,8.61,5.75,33.75,33.75,0,0,0,5.75.82,72.81,72.81,0,0,0,11.15-.12c2.77-.22,5.53-.59,8.27-1.07a12.56,12.56,0,0,0,2.3-.48C264,160.54,263.87,159.27,263.72,158Z"/><path class="b" d="M215.39,119.54a1.45,1.45,0,0,0-.19-.93,5.73,5.73,0,0,0-.45-1.91,11.52,11.52,0,0,0-1.25-3.16l-.19-.37-.32-.59a6.58,6.58,0,0,0-1.22-1.86l-.15-.17-.81-1-.14-.15,0,0-.15-.16,0,0-.14-.14c0-.06,0-.1-.11-.09L209,107.91l-.17-.14v0h0l0-.07h-.07l-.2-.15-.23-.17-.15-.12-.16-.09h0l-.23-.16a1.09,1.09,0,0,0,0,.18h0a1.09,1.09,0,0,1,0-.18h0l-.17-.12-.16-.08h0l-.22-.15h0l0-.06H207l-.62-.36-.21-.13A.14.14,0,0,0,206,106l-.23-.13-.05,0-.31-.16-1-.42-.36-.15-.17,0-.19-.1-.21-.06h0l-.35-.14a.61.61,0,0,0,0,.14h0a.61.61,0,0,1,0-.14l-.21,0-.34-.13-.24,0-.52-.16-.32-.06a.73.73,0,0,0-.62-.16l.19.19v0l-.19-.19a.09.09,0,0,0-.14,0,1.08,1.08,0,0,0-.8-.17c0-.06-.08-.07-.14,0l-.61-.13-.52-.06h0a2.87,2.87,0,0,0-1.36-.16h-.18a5.12,5.12,0,0,0-1.87-.14l.55.16h0l-.55-.16h-2.46a6.5,6.5,0,0,0-2.06.14l-.37,0v.17a.46.46,0,0,1-.23.4.46.46,0,0,0,.23-.4v-.17a2.78,2.78,0,0,0-1.34.16.12.12,0,0,0-.17,0h-.18l-.39,0-.55.11-.58.08-.38.11-.36,0-.55.14-.4.08-.34.11-.21,0-.4.14-.36.08-.33.12-.23.06-.33.13-.6.22-.36.15-.58.23-.33.16h0l-.34.17-.79.39-.33.18,0,0-.23.14a4.9,4.9,0,0,0-1.5.91h-.06l0,.06-.05,0-.2.15-.23.15h-.05l0,.06h0l0,0-.18.14-.4.28-.13.11,0,0-.19.15-.39.3q-.12,0-.12.09l-.05,0-.17.15-.79.64-.13.12,0,0-.17.15a24.73,24.73,0,0,0-3.6,3.56l-.19,0c0-.27,0-.55,0-.83,0-2.46,0-4.92,0-7.37,0-.28,0-.56-.06-.83s-.15-.17-.28-.15h-3c-.22,0-.44,0-.65,0H148.67a3.49,3.49,0,0,0-.56,0c-.07,0-.13.1-.19.16,0,.34-.07.68-.07,1q0,14.23,0,28.49,0,13,0,26.05c0,.31.05.62.07.93a.55.55,0,0,1,.59.35,7.15,7.15,0,0,1,.21.7l5.1,0a5.35,5.35,0,0,0,.55-.05c.12,0,.24,0,.37,0l17.21,0a2.46,2.46,0,0,0,.44-.09c.31-.28.14-.65.14-1q0-12.9,0-25.8c0-1.28,0-2.56.05-3.85l.15-1.31.37-2.06c.27-.81.54-1.62.8-2.43h0l1.09-1.79h.06v-.06l0,0,0,0,1.14-1.15h0v0l0,0h.06l0-.06.14-.13.05,0,.18-.14.81-.54,0,0,0,0,.06,0,0-.06,0,0,.23-.14.76-.35.07,0,.05-.07.23-.06.32-.13.24-.06.35-.12.62-.13.31-.06.79-.07,1.83,0,1.14.11.38.1.42.08.33.1.81.27.32.15.07.06h.1l.22.13,0,0,.05,0,0,0v0l.86.56.17.14v.05h0l0,.06h.07l.92,1,1.17,2.37.22.93h0l.15.76.17,1.5,0,.56v.37l.17-.37-.17.37c0,.28,0,.56,0,.84l0,30.43c0,.28,0,.56,0,.84,0,.07.06.2.11.21a2.59,2.59,0,0,0,.56,0h23.38a2.55,2.55,0,0,0,.55,0c.05,0,.07-.14.11-.22,0-.27,0-.55,0-.83v-5.84c0-.28,0-.56,0-.84,0-.5,0-1,0-1.5,0-.18,0-.37,0-.55v-8.28c0-.18,0-.37,0-.55s0-.31,0-.47q0-8.92,0-17.86c0-.59,0-1.18,0-1.78,0-.3-.09-.61-.13-.91s0-.81,0-1.21,0-.53,0-.8l-.2-.25A1.53,1.53,0,0,0,215.39,119.54Zm-4.57-8.73,0-.06Zm-9.7-6.24a.8.8,0,0,0,0,.27A.8.8,0,0,1,201.12,104.57Zm-5.27-.84a.51.51,0,0,0,.3.48A.51.51,0,0,1,195.85,103.73Zm-3-.27-.54.15h0Zm-.84.7a.76.76,0,0,0,.29-.45A.76.76,0,0,1,192,104.16Z"/></svg>