<svg width="148" height="33" viewBox="0 0 148 33" fill="none" xmlns="http://www.w3.org/2000/svg">
<g clip-path="url(#clip0_2453_1981)">
<path d="M22.8073 4.72986H9.21364L5.8249 10.5914H26.2004L22.8073 4.72986ZM26.2115 10.6157L16.021 28.2443H22.8073L29.6113 16.4904L26.2115 10.6157ZM2.41406 16.4904L9.21364 28.2443H16.0033L5.81054 10.6157L2.41406 16.4904Z" fill="#FFFEFE"/>
<path d="M29.058 0.796509H2.91082C1.46293 0.796509 0.296875 1.96616 0.296875 3.4084V29.5138C0.296875 30.9571 1.46293 32.13 2.91082 32.13H29.058C30.5026 32.13 31.6742 30.9571 31.6742 29.5138V3.4084C31.6742 1.96616 30.5026 0.796509 29.058 0.796509ZM9.21524 4.72925H22.8089L26.2009 10.5907H5.82651L9.21524 4.72925ZM9.21524 28.2448L2.41566 16.4909L5.81214 10.6161L16.0049 28.2448H9.21524ZM22.8089 28.2448H16.0215L26.2131 10.6161L29.6129 16.4909L22.8089 28.2448Z" fill="#00469B"/>
<path d="M132.389 15.914L130.987 22.5258H136.458C135.352 23.5631 133.802 24.2042 132.095 24.2042C129.422 24.2042 127.257 21.7954 127.257 18.8271C127.257 15.3203 129.859 12.4834 133.057 12.4834C134.786 12.4834 136.341 13.311 137.402 14.6263L145.915 11.1934C144.702 7.04999 139.472 3.9328 133.198 3.9328C124.201 3.9328 116.897 10.847 116.898 19.3766C116.897 26.6892 123.327 32.6202 131.26 32.6202C137.257 32.6202 140.752 30.6814 143.667 27.6547C145.849 25.3849 147.992 20.66 146.92 15.914H132.389Z" fill="#00469B"/>
<path d="M108.955 4.71021L101.625 18.1822L100.09 4.71352V4.71021H90.6953L81.2773 32.015H90.671L94.483 20.9629L95.7486 32.015H101.84L107.976 20.7378L107.282 32.015H116.395L118.072 4.71021H108.955Z" fill="#00469B"/>
<path d="M41.6009 4.70978H38.84L45.8949 17.4248L31.7773 32.0158H35.0324L48.8382 17.746L41.6009 4.70978ZM61.446 4.70978H58.191L53.9711 9.07502L51.5461 4.70978H42.9848L49.7114 16.8378L61.446 4.70978ZM36.7112 32.0158H46.421L51.2366 27.0369L53.9964 32.0158H56.7563L49.4461 18.8472L36.7112 32.0158ZM59.0265 20.4792C59.0265 13.491 63.61 7.46956 70.2295 4.70978H63.1259L50.3259 17.9401L58.1412 32.0158H66.0814C61.898 29.8662 59.0265 25.512 59.0265 20.4792Z" fill="#00469B"/>
<path d="M81.8256 23.0126C80.4595 23.336 78.9652 23.5169 77.3891 23.5169C74.9464 23.5169 72.9724 21.5406 72.9724 19.102C72.9724 15.7498 75.9323 13.0341 79.5952 13.0341C81.5393 13.0341 83.3553 13.3751 84.8883 13.9621L87.9333 5.12684C85.7029 4.35769 83.2602 3.93286 80.7016 3.93286C70.0247 3.93286 61.3672 11.3426 61.3672 20.4791C61.3672 23.4463 62.5001 26.4113 64.7615 28.6711C68.2066 32.1083 73.3206 33.1709 78.7021 32.0863L81.8256 23.0126Z" fill="#00469B"/>
</g>
<defs>
<clipPath id="clip0_2453_1981">
<rect width="147" height="32" fill="white" transform="translate(0.25 0.708374)"/>
</clipPath>
</defs>
</svg>
