<svg xmlns="http://www.w3.org/2000/svg" viewBox="0 0 2500 739.58"><defs><style>.a{fill:#d02318;}.a,.b{fill-rule:evenodd;}</style></defs><title>case</title><polygon class="a" points="2105.59 462.35 2185.64 155.02 2070.37 155.02 1990.35 462.35 2105.59 462.35"/><polygon class="a" points="2188.83 139.03 2214.43 49.38 2099.19 49.38 2073.59 139.03 2188.83 139.03"/><polygon class="a" points="191.15 510.38 50.28 676.86 2275.28 676.86 2320.09 510.38 191.15 510.38"/><path class="b" d="M2041.57,155H1926.31l-80,307.33h115.24l22.42-86.43c3.19-19.21,19.2-16,19.2-16l25.61-102.44h-16L2041.57,155Z"/><path class="b" d="M2214.43,155h0L2192,241.46c-3.22,19.21-19.22,16-19.22,16L2147.19,359.9h16l-28.81,102.44h115.26l80-307.33Z"/><path class="b" d="M572.12,350.31H444.06s-19.21,32-60.82,32c-38.42,0-64-28.82-51.23-73.63,12.8-38.42,51.23-70.44,92.84-70.44,38.41,0,41.62,35.23,38.41,51.23H584.92S623.34,139,424.85,139c-179.28,0-227.3,140.86-227.3,185.67C194.35,327.91,178.34,472,376.83,472,540.11,472,572.12,350.31,572.12,350.31Z"/><polygon class="b" points="1401.29 155.02 1318.05 462.35 1660.61 462.35 1683.01 372.73 1474.9 372.73 1481.31 347.12 1692.6 347.12 1711.82 270.28 1500.51 270.28 1506.91 241.48 1718.2 241.48 1740.63 155.02 1401.29 155.02 1401.29 155.02"/><path class="b" d="M761,155,527.3,462.35H671.36l19.2-22.4H805.81l3.2,25.62H949.89L889.06,155Zm-28.82,220.9L793,289.48l6.41,86.44Z"/><path class="b" d="M1318.05,356.71c3.19-35.21-12.82-54.43-51.22-67.23-32-12.8-92.85-22.4-112.06-28.81s-25.61-12.8-25.61-19.21c0-9.59,9.59-16,41.62-16,22.41,0,32,6.41,38.41,19.21v12.8l128,3.2h0c3.21-44.81-16-67.23-19.19-70.42s-32-44.83-150.48-44.83c-118.46-3.2-172.88,57.64-176.09,105.65,0,35.23,25.62,54.44,35.23,64,19.21,12.81,124.86,41.62,140.86,44.82,16,6.41,16,9.6,16,16-3.21,3.22-6.41,16-44.83,16-57.62,0-51.21-41.62-51.21-41.62H953.08c3.2,0-3.19,54.43,38.42,89.65,41.62,28.8,137.66,32,137.66,32s67.23,3.19,131.26-28.83C1321.24,411.13,1318.05,356.71,1318.05,356.71Z"/></svg>