<svg xmlns="http://www.w3.org/2000/svg" viewBox="0 0 806.18 601.13"><title>locust</title><path d="M45.28,286.58H37.77l-27.15.1V438.94a2.73,2.73,0,0,0,.4.05q43,0,86,0c1.3,0,1.67-.56,1.94-1.64,1.58-6.41,3.2-12.81,4.8-19.21.67-2.66,1.35-5.33,2.1-8.3H45.28Z"/><path d="M592.78,586a191.84,191.84,0,0,1-31.25-8.6c-5.46-2.1-9.58-5.41-11.84-10.91-3.35-8.18-7-16.23-10.12-24.5-10.62-28.58-19.64-57.7-28.47-86.87a2.21,2.21,0,0,0-2.57-1.92c-8.32.08-16.65,0-25,0-.63,0-1.26.06-1.94.1a3.47,3.47,0,0,0,0,.75c.8,3.06,1.57,6.13,2.43,9.18,7.34,25.92,15.59,51.52,26.93,76,4.85,10.5,10.25,20.7,17.75,29.64,4.49,5.36,9.85,9.32,16.84,10.79,2,.42,3.95,1.07,5.94,1.54,20.79,4.88,41.94,7.5,63.13,9.92,3.13.36,6.25.79,9.37,1.19h2.78a7.8,7.8,0,0,0-.93-.31C614.84,590.07,603.78,588.21,592.78,586Z"/><path d="M686,19.65l.29.27L505.13,276.13c.81.07,1.12.12,1.44.12,9.91,0,19.82,0,29.73-.06a3.53,3.53,0,0,0,2.43-1.5c37-57.83,74.25-115.57,110.95-173.62,13.76-21.75,26.4-44.21,39.45-66.41,2.88-4.89,5.37-10,6.39-15.7a21.88,21.88,0,0,0,.21-6.46c-.3-2.48-2.09-3.75-4.58-3.76-6.61,0-12.3,2.8-17.21,6.73C650.07,34.6,626.42,54,602.62,73.2,524.24,136.42,445.1,198.65,364.37,258.84c-5.08,3.79-10,7.79-15,11.75a18.93,18.93,0,0,0-2.23,2.48l.35.48a14.32,14.32,0,0,0,2.28-.19c15.19-3.65,30-2,44.66,2.88a2.89,2.89,0,0,0,3.31-.66Q532.69,155.73,667.67,36Z"/><path d="M214.42,289.64c-12.84-5.38-26.29-6.7-40-4.95-23.59,3-41.85,14.54-53.18,35.5-13.63,25.22-14.41,51.7-4.31,78.29,7.08,18.65,20.24,31.82,39.17,38.7,13.75,5,27.92,5.53,42.19,2.89,21.66-4,38.23-15.36,48.78-34.92,7.32-13.57,9.92-28.28,10-43.54a89.58,89.58,0,0,0-4.95-30.93C245.31,311.7,233.23,297.51,214.42,289.64Zm-.85,105c-4.81,9.35-11.83,16.2-22.42,18.51-14.1,3.07-27.12-2.42-35.11-14.63-4.95-7.57-7.39-16-8.41-24.9-1.48-13-.62-25.72,4.18-38,3.36-8.58,8.46-15.88,16.8-20.32,15.22-8.1,33-3.07,42.69,12,5.19,8.06,7.68,17,8.68,26.45.31,2.95.39,5.93.49,7.46C220.35,373.77,218.72,384.61,213.57,394.65Z"/><path d="M532.19,407.79a82,82,0,0,0,6.09-31.31c.17-29.4.09-58.81.1-88.22,0-.5-.09-1-.14-1.59h-34.4v2.79q0,43.13,0,86.24a62.46,62.46,0,0,1-2.7,19.15c-2.44,7.61-6.61,13.81-14.33,16.95-14.66,5.95-29.31-.42-34.91-15.18a58.1,58.1,0,0,1-3.4-20.8c-.07-28.88,0-57.76,0-86.64v-2.43H413.69c0,.63-.08,1.08-.07,1.54,0,29.27,0,58.54.17,87.81a90.31,90.31,0,0,0,4.88,29.58c6.08,17.34,17.72,28.87,35.7,33.39a82.28,82.28,0,0,0,44.8-1C514.89,433.23,525.86,423,532.19,407.79Z"/><path d="M653.13,362.72c-6.91-6.05-15-10-23.43-13.41-5.76-2.31-11.6-4.46-17.19-7.12a38.57,38.57,0,0,1-9.53-6.25c-5.59-5.14-5-13.63.87-18.46a22.21,22.21,0,0,1,12-4.63,67.06,67.06,0,0,1,28.49,3.38c2.93,1,5.76,2.2,8.84,3.38,2.57-9.31,5.12-18.55,7.69-27.83-.69-.31-1.16-.55-1.65-.74A95.37,95.37,0,0,0,605,285.68c-11.41,2.11-21.57,6.94-29.7,15.52-13.91,14.65-16.21,40.83.88,57,7.38,7,16.14,11.6,25.47,15.3,5.33,2.12,10.8,4,16,6.44a37.91,37.91,0,0,1,9.64,6.45,14.09,14.09,0,0,1-2.23,22.09,24.86,24.86,0,0,1-7,3.07c-8.29,2.21-16.65,1.4-24.95-.13a90.32,90.32,0,0,1-23.82-8.06c-.28.92-.51,1.59-.68,2.27q-2.88,11.73-5.74,23.46c-.74,3-.75,3.05,2.07,4.31a96.75,96.75,0,0,0,31.59,7.72c12.68,1.08,25.25.37,37.37-3.83,18.06-6.26,30.23-18,32.72-37.66C668.42,385.16,664.37,372.55,653.13,362.72Z"/><path d="M340.2,315.19c10.74-3.34,21.64-3.1,32.52-.88,4.56.93,9,2.45,13.65,3.76l7-27.31c-1.87-.74-3.47-1.54-5.16-2-22.79-6.66-45.51-6.86-67.82,1.75-20.11,7.77-34.39,21.77-42.25,42-5.29,13.63-6.61,27.8-5.25,42.26a76.8,76.8,0,0,0,9.21,30.7c10.24,18.25,26.14,28.75,46.18,33.48,12.74,3,25.64,3.19,38.59,1.84a87.51,87.51,0,0,0,22.73-5.12c1.5-.58,2-1.3,1.61-2.93-1.16-5.48-2.16-11-3.24-16.51-.55-2.81-1.13-5.62-1.71-8.54l-1.56.52c-12.69,4.11-25.66,5.77-38.86,3.37-16.66-3.05-28.4-12.34-33.9-28.61a62.58,62.58,0,0,1-.39-39C316,329.36,325.62,319.73,340.2,315.19Z"/><path d="M98.25,283.05a20.63,20.63,0,0,0,5.93-1.37c5.54-2.08,9.7-6,13.47-10.43,4.35-5.13,6.53-5.3,11.41-.65,3.57,3.41,6.84,7.15,10.16,10.83,3.89,4.3,5.51,4.66,10.63,2,1.58-.82,3.09-1.78,4.69-2.58a54.67,54.67,0,0,1,5.58-2.51c7.27-2.61,14.78-2.35,22.33-1.83a104.45,104.45,0,0,0,11.05.23c2.67-.09,4.26-1.75,4.84-4.43,1.39-6.45-.91-11.71-5.31-16.2-6.62-6.74-15-10.19-24-12.25a62.46,62.46,0,0,1-18.94-7.3,83.64,83.64,0,0,0-17.77-8.63c-.18-.06-.34-.18-.78-.4C199,179.48,271,140.89,348.92,113.62a8.7,8.7,0,0,0-1,.12c-10.26,2.49-20.61,4.68-30.76,7.54-32.33,9.11-63.14,22.08-93,37.45a662,662,0,0,0-103.49,65.86c-1.19.92-2.84,1.26-4.28,1.87l-.44-.66A743.22,743.22,0,0,1,217.55,43.88c-.69.29-1,.94-1.48,1.43a363.63,363.63,0,0,0-29.32,33.56c-33.91,44.09-59.3,92.79-78.08,145-1.5,4.15-2.59,8.39-6.44,11.12a4.53,4.53,0,0,0-.76.91c-6.35,8.22-9.62,17.72-11.07,27.84a52.59,52.59,0,0,0-.34,12.78C90.51,281.05,93.71,283.33,98.25,283.05Z"/><path d="M770.84,286.58q-41.33,0-82.66-.06c-1.92,0-2.6.59-3,2.38-1.3,5.66-2.78,11.28-4.19,16.91-.8,3.19-1.59,6.38-2.46,9.86h40.94V438.85h34.79V315.54h41.32v-29Z"/><path d="M231.2,454.87c-1.88-5-4-9.86-6.15-15.07-2.82,2.22-5.25,4.24-7.79,6.1-1.14.83-1.18,1.49-.66,2.76,2.85,7,5.73,14.06,8.25,21.21a45.5,45.5,0,0,1,1.79,9.48,3,3,0,0,1-2.81,3.63c-.59.09-1.16.28-1.74.4-10.07,2-19.93,4.57-29.11,9.37-17.11,9-27.33,23.62-34.06,41.15a20.13,20.13,0,0,0-1.31,6.16c-.05,1.27.53,3.11,1.46,3.72s2.56-.19,3.77-.66a7.37,7.37,0,0,0,2.3-1.86,24.78,24.78,0,0,0,6.48-11,89.64,89.64,0,0,0,1.95-9.29c1.1-7.11,5-11.87,11.83-13.94a73.38,73.38,0,0,1,11.75-2.66c8.06-1,16.16-1.61,24.24-2.46a31,31,0,0,0,5-1c8.72-2.38,12.23-7.46,11.67-16.49C237.46,474.2,234.8,464.42,231.2,454.87Z"/></svg>