<svg xmlns="http://www.w3.org/2000/svg" viewBox="0 0 270.37 189.34"><defs><style>.a{fill:#0049ff;}</style></defs><title>МКСМ</title><path class="a" d="M65.13,55.55c.91-1.6,1.76-3.24,2.66-4.85.36-.63.8-1.2,1.17-1.82.75-1.28,1.47-2.57,2.22-3.84s1.51-2.5,2.24-3.77c.49-.86.9-1.75,1.39-2.61.72-1.27,1.47-2.52,2.2-3.79s1.37-2.46,2.07-3.68c1-1.68,2-3.35,2.94-5,.63-1.08,1.23-2.17,1.86-3.25,1.08-1.83,2.19-3.63,3.24-5.46.92-1.62,1.77-3.28,2.66-4.91.28-.51.62-1,.91-1.5C91.82,9.1,93,7.16,94.05,5.21c.46-.82.83-1.69,1.24-2.54h.55a23.78,23.78,0,0,0,1,2.17c1.09,1.92,2.24,3.81,3.35,5.72.67,1.13,1.31,2.28,2,3.42.44.76-.16,1.3-.44,1.86-.91,1.74-1.89,3.45-2.87,5.16-.39.69-.84,1.34-1.25,2-.74,1.25-1.46,2.51-2.2,3.77S94,29.22,93.27,30.46c-.6,1.05-1.13,2.14-1.75,3.18-1,1.74-2.11,3.45-3.15,5.19-.46.79-.84,1.62-1.29,2.42-.92,1.6-1.89,3.17-2.81,4.78-1.17,2-2.28,4.13-3.46,6.17-1,1.74-2,3.43-3.06,5.15-.53.92-1,1.88-1.52,2.79C75.13,62,74,63.9,72.89,65.8s-2,3.69-3.1,5.53c-.81,1.4-1.69,2.76-2.5,4.17-1.23,2.14-2.41,4.31-3.64,6.46-.45.78-1,1.51-1.42,2.29-.72,1.25-1.39,2.53-2.11,3.77-.91,1.56-1.88,3.07-2.77,4.63s-1.78,3.29-2.66,4.93l-.64,1.11c-.89,1.49-1.78,3-2.65,4.47-1.35,2.35-2.67,4.72-4,7.06-1,1.74-2.1,3.44-3.13,5.18-.68,1.16-1.3,2.37-2,3.54s-1.31,2.23-1.95,3.36-1.12,2.06-1.69,3.08a19.55,19.55,0,0,1-1.22,2,1.19,1.19,0,0,1-.83.31c-1.27,0-2.54,0-3.81,0-.28,0-8.55.19-8.7,0s-.43-.36-.12-.85c.88-1.38,1.66-2.83,2.47-4.26,1.3-2.28,2.58-4.58,3.89-6.85.67-1.17,1.42-2.29,2.1-3.45,1-1.66,1.88-3.35,2.82-5,.83-1.47,1.65-2.93,2.51-4.37,1-1.63,2-3.21,2.92-4.84s1.78-3.33,2.7-5c.64-1.13,1.35-2.23,2-3.36.94-1.59,1.85-3.19,2.78-4.78q1.56-2.73,3.14-5.44c.51-.9,1-1.8,1.55-2.69,1.12-1.9,2.27-3.78,3.36-5.7.88-1.56,1.7-3.16,2.56-4.73.26-.47.55-.93.83-1.4q1.3-2.19,2.6-4.4C63.16,58.93,64.17,57.25,65.13,55.55ZM99.38,25q-1.34,2.3-2.66,4.6c-.62,1.09-1.18,2.22-1.81,3.31-1.09,1.89-2.21,3.77-3.31,5.66-.63,1.07-1.25,2.14-1.87,3.21q-1.17,2-2.33,4c-.57,1-1.11,2-1.7,3-.37.64-.82,1.23-1.19,1.87-.92,1.62-1.8,3.26-2.72,4.88q-1.71,3-3.45,6c-1,1.8-2.12,3.59-3.17,5.4q-1.4,2.39-2.76,4.79C71.19,74,70,76.12,68.75,78.26c-1,1.73-2,3.45-3,5.18-.77,1.32-1.51,2.65-2.28,4-.36.63-.74,1.24-1.11,1.87l-2.64,4.52c-.7,1.21-1.41,2.41-2.09,3.63S56.33,99.8,55.66,101c-.52.91-1.11,1.78-1.63,2.7s-1,1.94-1.58,2.89c-1.25,2.14-2.53,4.25-3.79,6.39-1.07,1.82-2.11,3.65-3.17,5.48-.36.6-.74,1.19-1.08,1.8-1,1.71-1.88,3.44-2.85,5.14s-2,3.4-3,5.1c-.61,1.05-1.19,2.12-1.8,3.18s-1.25,2.08-1.85,3.13c-.72,1.28-1.42,2.56-2.11,3.84-.12.21-.28.59-.22.64a1.3,1.3,0,0,0,.77.3c3.69,0,7.38-.07,11.07,0A2.54,2.54,0,0,0,47,139.92c.84-1.61,1.69-3.22,2.59-4.8s2-3.31,3-5c.68-1.14,1.31-2.31,2-3.46.51-.88,1-1.74,1.54-2.63.82-1.47,1.58-3,2.43-4.42,1-1.77,2.16-3.48,3.19-5.25,1.18-2,2.27-4.1,3.43-6.14.94-1.63,1.92-3.24,2.87-4.87.71-1.21,1.38-2.43,2.08-3.64,1-1.81,2.1-3.62,3.14-5.43.62-1.07,1.2-2.17,1.82-3.24s1.36-2.22,2-3.36,1.19-2.36,1.86-3.5c1-1.78,2.17-3.52,3.22-5.29.6-1,1.11-2.07,1.7-3.09.87-1.52,1.79-3,2.66-4.54.54-.93,1-1.89,1.56-2.82.38-.65.86-1.26,1.24-1.92.75-1.28,1.46-2.59,2.18-3.88.23-.41.44-.83.67-1.23.7-1.23,1.4-2.46,2.11-3.69s1.31-2.31,2-3.45c.46-.79,1-1.54,1.43-2.33.56-1,1.07-2,1.64-3,.69-1.22,1.42-2.43,2.14-3.65l2.22-3.78c.63-1.06,1.29-2.1,1.9-3.17.72-1.27,1.38-2.57,2.09-3.84.88-1.54,1.79-3.06,2.67-4.59.46-.8.89-1.62,1.36-2.41s.81-.69,1.19,0c.55,1,1.09,2,1.63,2.94s1.16,2.13,1.75,3.18c1,1.74,2,3.47,3,5.2l2.31,4c.36.62.73,1.23,1.08,1.86s.62,1.19.95,1.77c.43.77.9,1.52,1.33,2.29.9,1.6,1.77,3.23,2.68,4.83.67,1.17,1.44,2.29,2.1,3.47,1.1,1.95,2.13,3.95,3.23,5.9s2.35,4,3.53,6c.26.45.48.91.75,1.35.47.8,1,1.57,1.43,2.37,1.17,2.08,2.29,4.17,3.46,6.25.46.82,1,1.61,1.46,2.43.6,1,1.19,2,1.77,3.07.4.71.79,1.42,1.18,2.13.85,1.54,1.69,3.08,2.55,4.61.53.94,1.12,1.85,1.66,2.78s1,1.81,1.52,2.71c.67,1.18,1.37,2.35,2,3.54s1.34,2.45,2,3.67,1.44,2.44,2.15,3.66c.95,1.63,1.91,3.26,2.85,4.9.45.8.88,1.61,1.32,2.42.32.59.63,1.19,1,1.78.9,1.56,1.81,3.11,2.71,4.66l2.21,3.78a13.55,13.55,0,0,1,1.19,2,1,1,0,0,0,1.16.77c2,0,3.95,0,5.92,0h1.08c1.66,0,3.31,0,5,0a1,1,0,0,0,.68-.31c.08-.1-.1-.44-.21-.64s-.4-.55-.56-.85c-.89-1.63-1.74-3.3-2.67-4.92-1.19-2.09-2.46-4.14-3.66-6.22-.64-1.11-1.2-2.26-1.84-3.37-1.32-2.33-2.68-4.64-4-7-1.06-1.85-2.07-3.73-3.13-5.58s-2-3.46-3.05-5.2c-.71-1.22-1.4-2.45-2.11-3.67-.59-1-1.2-2.06-1.78-3.11s-1.29-2.43-2-3.62c-.9-1.56-1.87-3.09-2.77-4.65s-1.87-3.32-2.8-5-1.79-3.22-2.71-4.81c-.74-1.29-1.53-2.55-2.28-3.83-.61-1-1.21-2.1-1.79-3.16-.68-1.22-1.3-2.47-2-3.68-.88-1.54-1.82-3-2.72-4.58-.75-1.3-1.49-2.62-2.23-3.93-.47-.82-.94-1.64-1.4-2.46-.54-1-1.07-2-1.62-2.94-.65-1.13-1.33-2.25-2-3.38s-1.45-2.54-2.18-3.81c-.44-.76-.92-1.5-1.34-2.26-.54-1-1-2-1.58-3-.68-1.21-1.41-2.4-2.11-3.6s-1.36-2.37-2-3.55c-.45-.78-.93-1.54-1.37-2.33-1.14-2-2.24-4.06-3.39-6.07-.67-1.18-1.42-2.3-2.09-3.48-.89-1.58-1.74-3.19-2.61-4.78C114.72,6.73,114,5.34,113.16,4a5.23,5.23,0,0,0-1-1,8,8,0,0,0-.82,1c-.9,1.64-1.73,3.31-2.65,4.94s-2,3.33-3,5c-1.19,2.06-2.33,4.15-3.52,6.22C101.27,21.82,100.31,23.38,99.38,25Zm51.06,116.6,13.83.05c2.08,0,4.16,0,6.23.06H174c.63,0,.91-.31.66-.76q-1.17-2.13-2.41-4.23c-.67-1.12-1.43-2.18-2.07-3.31-1.13-2-2.16-4.09-3.3-6.11-1-1.72-2-3.41-3-5.11-.32-.53-.68-1-1-1.6s-.58-1.21-.9-1.8c-.69-1.24-1.4-2.47-2.1-3.7-1-1.68-1.9-3.38-2.87-5-.64-1.11-1.34-2.18-2-3.29s-1.37-2.53-2.07-3.78c-.84-1.48-1.71-3-2.56-4.43-1.08-1.85-2.14-3.71-3.22-5.57-.33-.58-.7-1.14-1-1.73s-.53-1.18-.85-1.74c-1.07-1.88-2.17-3.74-3.26-5.61-.34-.6-.66-1.21-1-1.81-.67-1.15-1.37-2.27-2-3.43s-1.29-2.36-1.95-3.53-1.4-2.42-2.09-3.63c-.6-1-1.19-2.1-1.79-3.15-.47-.82-1-1.62-1.43-2.45-.83-1.49-1.62-3-2.46-4.5-.48-.86-1-1.69-1.51-2.54-.6-1-1.19-2.07-1.78-3.11s-1.36-2.32-2-3.5-1.25-2.34-1.91-3.5c-1-1.7-2-3.38-2.95-5.07-.68-1.16-1.35-2.33-2-3.49-.39-.65-.83-1.28-1.2-2-1.06-2-2.08-4-3.17-5.94-.09-.16-.54-.24-.77-.17a1.17,1.17,0,0,0-.57.55c-.64,1.09-1.24,2.19-1.87,3.28-.75,1.33-1.5,2.66-2.27,4-.61,1-1.29,2-1.89,3a1,1,0,0,0,0,.76c.3.58.67,1.12,1,1.68.66,1.13,1.32,2.25,2,3.39.9,1.61,1.76,3.25,2.68,4.85s1.93,3.26,2.88,4.9c.65,1.13,1.24,2.28,1.88,3.41,1,1.82,2.09,3.63,3.13,5.45.61,1.06,1.21,2.14,1.83,3.2s1.31,2.2,1.94,3.32,1.32,2.38,2,3.57c.9,1.61,1.82,3.22,2.74,4.82.7,1.21,1.41,2.41,2.12,3.61s1.36,2.29,2,3.45c.91,1.63,1.75,3.29,2.68,4.91s1.84,3,2.73,4.57c.76,1.33,1.47,2.68,2.22,4s1.69,3,2.53,4.45l2.9,5c1,1.76,2,3.51,3,5.28.84,1.49,1.65,3,2.5,4.48.77,1.34,1.59,2.66,2.38,4,.61,1.05,1.22,2.12,1.81,3.19.13.24.34.64.25.76a1.23,1.23,0,0,1-.82.34c-.92,0-55.24-.08-55.24-.08s-.57.76-.8,1.17q-2.58,4.52-5.14,9.05a4.33,4.33,0,0,0-.3.78,3.42,3.42,0,0,0,.85.25ZM158.63,26c-.73,1.25-1.51,2.45-2.23,3.7-.6,1-1.11,2.1-1.71,3.13-.46.8-1,1.55-1.47,2.35-.94,1.63-1.84,3.3-2.78,4.93s-1.9,3.22-2.83,4.85c-.64,1.13-1.2,2.31-1.85,3.43s-1.3,2.11-2,3.15a.75.75,0,0,0,0,1,11.13,11.13,0,0,1,.88,1.5c.49,1,.93,2,1.45,2.95,1.13,2.12,2.3,4.23,3.47,6.33a1,1,0,0,0,.65.47c.19,0,.47-.24.59-.45.89-1.56,1.73-3.14,2.61-4.7s1.86-3.18,2.78-4.78q1.9-3.27,3.79-6.55c.3-.52.57-1.06.87-1.58.6-1,1.22-2.06,1.82-3.09.79-1.36,1.57-2.73,2.37-4.08.62-1,1.3-2.06,1.9-3.12,1.08-1.91,2.12-3.84,3.18-5.76.42-.75.85-1.5,1.3-2.23.17-.27.4-.6.72-.16s.76,1.06,1.09,1.63c.9,1.6,1.76,3.21,2.65,4.81.76,1.38,1.52,2.77,2.29,4.14.32.56.68,1.1,1,1.65s.79,1.26,1.16,1.9l2.1,3.69c.31.55.65,1.1,1,1.66.68,1.26,1.33,2.55,2,3.79.87,1.53,1.81,3,2.68,4.54,1.05,1.81,2.05,3.64,3.08,5.46.34.59.72,1.15,1.05,1.73,1,1.71,1.89,3.44,2.86,5.13.64,1.12,1.36,2.18,2,3.29.9,1.61,1.73,3.26,2.62,4.88.78,1.42,1.6,2.81,2.41,4.22.26.47.52.94.8,1.4.67,1.11,1.38,2.2,2,3.32.75,1.32,1.41,2.67,2.16,4,.57,1,1.24,2,1.82,3,1.17,2,2.3,4.13,3.46,6.19.64,1.14,1.32,2.25,2,3.38,1.53,2.68,3,5.36,4.56,8,1.1,1.94,2.21,3.86,3.31,5.8l3.86,6.79c.52.92,1.08,1.82,1.6,2.74s.87,1.63,1.31,2.43a1.58,1.58,0,0,0,1.57,1c1.87,0,3.76,0,5.63,0H242c.93,0,1.16-.44.67-1.26-.13-.23-.28-.46-.41-.69-.69-1.25-1.36-2.5-2.07-3.73s-1.32-2.14-2-3.23c-.79-1.34-1.55-2.69-2.32-4l-1.92-3.4q-1.76-3.07-3.52-6.15c-.43-.74-.9-1.46-1.31-2.2-.85-1.56-1.66-3.15-2.53-4.7-.61-1.1-1.32-2.15-1.94-3.24q-1.87-3.25-3.7-6.53c-.91-1.63-1.79-3.27-2.71-4.89-.71-1.26-1.46-2.49-2.19-3.74-.85-1.44-1.7-2.88-2.53-4.33-.74-1.3-1.46-2.63-2.21-3.94-.38-.66-.82-1.29-1.21-2-.66-1.16-1.3-2.35-2-3.52S207,64.1,206.36,63s-1.25-2.37-1.92-3.54c-.91-1.57-1.88-3.12-2.79-4.69-.76-1.3-1.47-2.63-2.22-3.93S197.77,48,197,46.54s-1.62-3-2.46-4.43c-.52-.9-1.14-1.73-1.64-2.64-.92-1.65-1.76-3.34-2.68-5s-2-3.42-3-5.14c-.86-1.48-1.69-3-2.54-4.44s-1.53-2.7-2.3-4S181,18.5,180.3,17.31s-1.25-2.08-1.84-3.14c-.89-1.58-1.75-3.18-2.63-4.77-1.07-1.91-2.15-3.8-3.22-5.71-.31-.56-.77-.63-1.18-.14a3,3,0,0,0-.32.52l-1.18,2.18L168.55,8.8c-.26.49-.51,1-.81,1.46-.45.72-1,1.41-1.39,2.14-1,1.71-2,3.43-2.95,5.15L160.3,23C159.74,24,159.21,25,158.63,26Zm70.18,105.13q-1.77-3.1-3.53-6.22c-1.47-2.59-2.92-5.18-4.39-7.77-.79-1.4-1.6-2.8-2.4-4.21-1-1.75-2-3.5-3-5.24-.62-1.1-1.28-2.17-1.89-3.26-.75-1.32-1.46-2.65-2.2-4-.6-1.06-1.23-2.1-1.84-3.14-.72-1.25-1.44-2.5-2.15-3.75-.56-1-1.1-2-1.64-3-.68-1.27-1.34-2.55-2.05-3.81-.87-1.54-1.79-3.06-2.68-4.59L199,78.56c-.49-.84-1-1.66-1.46-2.51s-1.08-2-1.65-3-1.35-2.23-2-3.36-1.36-2.43-2.05-3.64q-1.33-2.38-2.69-4.75c-.77-1.34-1.56-2.68-2.35-4-.6-1-1.26-2-1.83-3.07-.88-1.59-1.69-3.23-2.58-4.82-1-1.78-2.05-3.53-3.09-5.3l-2-3.41c-.41-.68-.83-1.34-1.22-2-.5-.9-1-1.83-1.45-2.74-.3-.55-.62-1.1-1-1.64a24.36,24.36,0,0,0-1.4-2.22.61.61,0,0,0-1.08.1c-.68,1.14-1.32,2.3-2,3.46s-1.22,2.2-1.85,3.29c-.33.58-.7,1.14-1.05,1.71-.54.9-1,1.82-1.61,2.71a1.39,1.39,0,0,0-.18,1.53c.69,1.2,1.41,2.39,2.13,3.58.43.71.89,1.41,1.3,2.14,1.15,2.06,2.26,4.14,3.42,6.21.42.74.92,1.44,1.35,2.18.6,1,1.17,2.11,1.77,3.16.4.71.83,1.39,1.23,2.1.93,1.67,1.83,3.35,2.77,5,.41.72.88,1.42,1.28,2.14.58,1,1.11,2.07,1.69,3.09s1.37,2.25,2,3.4c.8,1.41,1.55,2.84,2.34,4.25s1.76,3.08,2.65,4.62c.71,1.22,1.43,2.43,2.16,3.65.36.59.77,1.16,1.11,1.77.95,1.7,1.86,3.43,2.79,5.15.24.43.47.87.72,1.29.45.72,1,1.41,1.38,2.16.88,1.58,1.69,3.2,2.57,4.78.72,1.3,1.5,2.56,2.25,3.85l3.47,6c.4.71.83,1.4,1.23,2.11,1.19,2.12,2.36,4.25,3.56,6.36.41.72.91,1.4,1.33,2.12s.65,1.31,1,2,.85,1.28,1.21,2c1.14,2.07,2.21,4.17,3.36,6.23.93,1.69,1.93,3.35,2.92,5,.61,1,1.28,1.86,2.75,1.72,1.75-.15,3.52,0,5.29,0h0c2.11,0,4.21,0,6.32,0,.23,0,.64-.29.65-.47a2.87,2.87,0,0,0-.2-1.43c-.74-1.44-1.56-2.84-2.37-4.25C230.93,134.8,229.86,133,228.81,131.13ZM121.18,75.27c-1-1.69-1.93-3.4-2.92-5.08a4.11,4.11,0,0,0-.79-.93c-.31-.29-.55-.24-.77.2-.51,1.05-1.06,2.08-1.63,3.09-.4.71-.89,1.36-1.3,2.06-.72,1.24-1.42,2.5-2.13,3.75-.89,1.57-1.79,3.13-2.68,4.69-.74,1.3-1.47,2.61-2.22,3.9-.48.84-1,1.65-1.49,2.5-1.13,2-2.24,4-3.37,5.94-.61,1.07-1.25,2.13-1.87,3.2l-2.22,3.84-1.54,2.63-1.76,3.1-2.28,4c-.54.95-1.08,1.9-1.63,2.85s-1,1.62-1.45,2.44c-.85,1.51-1.64,3-2.51,4.54-1,1.71-2.06,3.38-3.1,5.07-.22.35-.12.56.26.63a3.13,3.13,0,0,0,.61,0c2.85,0,5.71,0,8.56,0,4.59,0,9.19.06,13.78.07,2,0,4-.07,6-.06,2.37,0,4.74.08,7.11.09,5,0,9.92,0,14.88,0h14.54a5.65,5.65,0,0,0,1,0c.45-.08.62-.31.33-.77-.84-1.35-1.67-2.71-2.47-4.09-.6-1-1.16-2.06-1.74-3.09-.47-.83-1-1.62-1.41-2.47a1.83,1.83,0,0,0-2.07-1.35c-6.38,0-12.77-.07-19.15-.15-3.09,0-6.18-.19-9.27-.26-2.78-.06-5.56-.09-8.35-.13-.51,0-1,0-1.54,0a4.46,4.46,0,0,1-.51-.07,4,4,0,0,1,.21-.52c.13-.21.33-.38.45-.6.91-1.6,1.81-3.2,2.7-4.82s1.89-3.55,2.88-5.29c.67-1.17,1.45-2.28,2.16-3.44s1.36-2.22,2-3.35c.88-1.57,1.69-3.18,2.59-4.75,1.06-1.85,2.2-3.66,3.27-5.51,1.18-2,2.32-4.06,3.48-6.08a1.18,1.18,0,0,0-.06-1.33C122.9,78.27,122,76.77,121.18,75.27ZM137.41,41.8c.44.74.89,1.47,1.31,2.22.62,1.13,1.21,2.27,1.84,3.39a12.55,12.55,0,0,0,1,1.59.51.51,0,0,0,.94-.07c.45-.75.86-1.52,1.28-2.28.71-1.28,1.39-2.57,2.12-3.83,1-1.63,2-3.21,2.91-4.83,1.15-2,2.26-3.92,3.38-5.89.65-1.15,1.25-2.34,1.92-3.48.78-1.31,1.61-2.59,2.4-3.9s1.64-2.73,2.45-4.1c.29-.48.58-1,.86-1.46.51-.89,1-1.8,1.52-2.69.28-.5.58-1,.86-1.47a4.1,4.1,0,0,0-.22-.56c-.52-.94-1.07-1.88-1.59-2.82-.67-1.2-1.31-2.4-2-3.6s-1.52-2.7-2.33-4a4.63,4.63,0,0,0-.91-.85,6.32,6.32,0,0,0-.66.81c-.41.72-.77,1.48-1.18,2.2-1,1.77-2.06,3.53-3.08,5.29-.58,1-1.13,2-1.71,3-.69,1.19-1.4,2.35-2.08,3.54-.78,1.36-1.53,2.74-2.31,4.1s-1.8,3-2.68,4.51-1.67,2.89-2.5,4.34c-.28.48-.55,1-.82,1.46l-1.28,2.29c-.56.95-1.14,1.89-1.67,2.85a.81.81,0,0,0,0,.63C136,39.38,136.69,40.59,137.41,41.8Zm-16.34,71.74a1.43,1.43,0,0,0,1-.47c.84-1.3,1.6-2.66,2.37-4,.94-1.66,1.86-3.33,2.8-5,1.11-1.94,2.24-3.86,3.35-5.8.5-.87.92-1.8,1.46-2.64a1,1,0,0,0,0-1.3q-.5-.77-.93-1.56c-.55-1-1.08-2.06-1.64-3.08-.44-.81-.9-1.61-1.37-2.41-.59-1-1.17-2-1.8-3-.41-.65-1-.62-1.44.06-.55.9-1,1.84-1.56,2.75-.63,1.07-1.29,2.12-1.91,3.19s-1.34,2.38-2,3.57c-.54,1-1.12,1.89-1.66,2.85s-1.14,2.08-1.73,3.11c-.33.59-.71,1.14-1,1.73-.71,1.25-1.4,2.51-2.13,3.76s-1.46,2.42-2.16,3.66-1.31,2.36-2,3.55c-.14.26-.24.54-.36.81a3.61,3.61,0,0,0,.92.25c2.58,0,5.16,0,7.74,0h0C118.4,113.56,119.74,113.59,121.07,113.54ZM255.79,81c-6.74-9-16.33-17-28.5-23.84a149.43,149.43,0,0,0-28.09-12l5.36,9.56a137.17,137.17,0,0,1,19.16,8.84C235,69.81,243.83,77.17,250,85.33s9.31,16.89,9.31,25.79-3.13,17.58-9.31,25.8-15,15.52-26.24,21.87a153.06,153.06,0,0,1-39.66,15,211.5,211.5,0,0,1-48.87,5.55,211.58,211.58,0,0,1-48.88-5.55,152.84,152.84,0,0,1-39.65-15c-11.29-6.35-20.12-13.71-26.25-21.87S11.1,120,11.1,111.12s3.14-17.58,9.31-25.79,15-15.52,26.25-21.87a131.84,131.84,0,0,1,14.11-6.85l5.46-9.9a146.35,146.35,0,0,0-23.15,10.4C30.91,64,21.32,72,14.58,81,7.44,90.46,3.82,100.61,3.82,111.12s3.62,20.67,10.76,30.18c6.74,9,16.33,17,28.5,23.84a160.53,160.53,0,0,0,41.55,15.78,218.31,218.31,0,0,0,50.56,5.75,218.38,218.38,0,0,0,50.56-5.75,160.31,160.31,0,0,0,41.54-15.78c12.17-6.85,21.76-14.87,28.5-23.84,7.15-9.51,10.77-19.66,10.77-30.18S262.94,90.46,255.79,81Z"/></svg>