<?xml version="1.0" encoding="utf-8"?>
<svg
	version="1.1"
	xmlns="http://www.w3.org/2000/svg"
	xmlns:xlink="http://www.w3.org/1999/xlink"
	x="0%" y="0%"
	width="100%" height="100%"
	viewBox="0 0 18.0 18.0"
	enable-background="new 0 0 18.0 18.0"
	xml:space="preserve">
	<path
		fill="#000000"
		stroke="#000000"
		fill-opacity="1.000"
		stroke-opacity="1.000"
		fill-rule="nonzero"
		stroke-width="0.17999999"
		stroke-linejoin="miter"
		stroke-linecap="square"
		d="M8.70,10.01L1.29,13.50L8.70,1.55L8.70,10.01z"/>
	<path
		fill="#FF0000"
		stroke="#FF0000"
		fill-opacity="1.000"
		stroke-opacity="1.000"
		fill-rule="nonzero"
		stroke-width="0.17999999"
		stroke-linejoin="miter"
		stroke-linecap="square"
		d="M9.23,10.01L16.63,13.50L9.23,1.55L9.23,10.01z"/>
	<path
		fill="#000000"
		stroke="#000000"
		fill-opacity="1.000"
		stroke-opacity="1.000"
		fill-rule="nonzero"
		stroke-width="0.17999999"
		stroke-linejoin="miter"
		stroke-linecap="square"
		d="M4.50,16.34L4.50,16.77Q4.50,17.02,4.25,17.02L1.27,17.02Q1.02,17.02,1.02,16.77L1.02,16.34L3.52,16.34L3.52,15.79L1.27,15.79Q1.02,15.79,1.02,15.54L1.02,15.11L1.02,14.65L1.02,14.22Q1.02,13.97,1.27,13.97L4.25,13.97Q4.50,13.97,4.50,14.22L4.50,14.65L2.00,14.65L2.00,15.20L4.25,15.20Q4.50,15.20,4.50,15.45L4.50,15.88L4.50,16.34z"/>
	<path
		fill="#000000"
		stroke="#000000"
		fill-opacity="1.000"
		stroke-opacity="1.000"
		fill-rule="nonzero"
		stroke-width="0.17999999"
		stroke-linejoin="miter"
		stroke-linecap="square"
		d="M8.75,15.16L8.75,15.83Q8.75,17.07,7.60,17.07L5.22,17.02L5.22,13.97L7.60,13.97Q8.75,13.97,8.75,15.16zM6.16,16.30L7.34,16.30Q7.77,16.26,7.81,15.83L7.81,15.11Q7.77,14.69,7.34,14.65L6.16,14.65L6.16,16.30z"/>
	<path
		fill="#FF0000"
		stroke="#FF0000"
		fill-opacity="1.000"
		stroke-opacity="1.000"
		fill-rule="nonzero"
		stroke-width="0.17999999"
		stroke-linejoin="miter"
		stroke-linecap="square"
		d="M7.34,15.24L7.34,15.71Q7.34,15.83,7.22,15.83L6.67,15.83L6.67,15.11L7.22,15.11Q7.34,15.11,7.34,15.24z"/>
	<path
		fill="#000000"
		stroke="#000000"
		fill-opacity="1.000"
		stroke-opacity="1.000"
		fill-rule="nonzero"
		stroke-width="0.17999999"
		stroke-linejoin="miter"
		stroke-linecap="square"
		d="M9.42,14.69L9.42,14.22Q9.42,13.97,9.68,13.97L10.40,13.97L10.40,16.30L12.82,16.30L12.82,16.77Q12.82,17.02,12.57,17.02L9.68,17.02Q9.42,17.02,9.42,16.77L9.42,16.30L9.42,14.69z"/>
	<path
		fill="#000000"
		stroke="#000000"
		fill-opacity="1.000"
		stroke-opacity="1.000"
		fill-rule="nonzero"
		stroke-width="0.17999999"
		stroke-linejoin="miter"
		stroke-linecap="square"
		d="M13.33,14.69L13.33,16.30L13.33,16.77Q13.33,17.02,13.58,17.02L16.64,17.02Q16.90,17.02,16.90,16.77L16.90,15.16L15.28,15.16L15.28,15.79L15.92,15.79L15.92,16.30L14.31,16.30L14.31,14.65L16.90,14.65L16.90,14.22Q16.90,13.97,16.64,13.97L14.35,13.97L13.58,13.97Q13.33,13.97,13.33,14.22L13.33,14.69"/>
</svg>