<svg xmlns="http://www.w3.org/2000/svg" viewBox="0 0 859.95 138.52"><title>mustang</title><path d="M171.72,22.31c-14.34-1.37-29-.95-43.37,0-10,.66-16.76,7.42-21.09,17.37C100.57,24.38,88.36,21,74,21.56c-7.49.27-15,.05-22.5.12C31.29,21.86,20,33.2,20,53.5c0,20.66.17,41.32.29,62,0,1.61.24,3.2.37,4.82h27v-5.84c0-16.33-.17-32.65-.1-49,0-10,5.42-15.39,15.44-15.72,4.33-.15,8.66-.11,13-.08,11.49.08,16.81,5.4,16.86,16.88.07,16.16.08,32.32.15,48.48,0,1.75.19,3.5.29,5.21H122v-7.09c0-16-.18-32-.1-48,0-9.66,5.63-15.33,15.06-15.59,4.17-.11,8.33,0,12.5,0,12.87,0,17.82,4.91,17.9,17.83.09,15.66.12,31.32.22,47,0,1.91.22,3.82.34,5.64h26.35a7.86,7.86,0,0,0,.49-1.75c0-23,.23-46-.23-69C194.19,34.93,185.26,23.6,171.72,22.31Z"/><path d="M840.29,63.1H789.61V83.76h26c1.69,12-.35,14.46-11.68,14.49l-28,.11c-8.18,0-11-2.74-11.11-11.1q-.13-17.74-.07-35.5c0-7.5,2.73-10.28,10.23-10.38,11-.15,22-.06,33-.22,9.23-.14,9.44-.06,11.21,8.92h22.57c-.3-3.66-.61-6.95-.83-10.24-1-14.67-8-21.13-22.84-21.09q-30,.08-60,.19c-8.91,0-15.19,4.92-17.13,13.75a49.09,49.09,0,0,0-1.07,10.4c-.06,17.83,0,35.66.09,53.5,0,13.29,7.4,21,20.63,21q30,.23,60,0c12.76-.1,20.12-7.58,20.27-20.34.13-10.33,0-20.66-.06-31A20.42,20.42,0,0,0,840.29,63.1Z"/><path d="M399.65,60.79a41.2,41.2,0,0,0-9.41-1c-13.5,0-27,.15-40.5.08-6.3,0-7.59-1.68-7.49-8.39.1-6.09,1.71-7.84,7.66-7.89,9.5-.09,19-.06,28.5-.09,9.83,0,9.83,0,11.63,9.88,5,0,10.16,0,15.3,0,1.62,0,3.24-.15,5-.24,0-5.44.64-10.64-.13-15.63-1.71-11.22-8.95-16.94-20.52-17-16,0-32,.05-48,.08C329,20.68,322,25.43,320,38c-1.51,9.24-1.27,18.93-.51,28.32s7.1,14.25,16.56,14.85c2.49.16,5,0,7.5,0,13.5-.06,27,0,40.5-.24,5.1-.08,7.32,2.36,7.55,7.12a37.4,37.4,0,0,1,0,5.5c-.4,4.07-2.32,6.11-6.86,6-10.83-.25-21.67-.06-32.5,0-9.77,0-9.77,0-10.67-9.26,0-.28-.34-.53-.63-1H319.57c.38,6.41.27,12.25,1.17,17.93,1.23,7.81,6.56,12.59,14.46,12.65,20,.14,40,.13,60-.44,10.31-.29,16.43-7.33,16.59-17.62.13-8.66.08-17.33-.08-26C411.56,67.78,407.5,62.67,399.65,60.79Z"/><path d="M307.38,21.07H283c0,10.28,0,19.92,0,29.57,0,11,.33,22,0,33-.26,8.81-3.6,13.78-13.41,13.33-9.64-.43-19.32,0-29,0-6.18,0-9.26-2.39-10.75-8.29a31.18,31.18,0,0,1-.85-7.4c-.13-18.16-.15-36.32-.23-54.48,0-1.76-.14-3.51-.22-5.21H204.45c-.09,1.85-.22,3.32-.22,4.79q.11,23,.24,46c.05,8.17-.24,16.35.25,24.49,1,16.25,8.31,23,24.29,23q28.5-.06,57-.16c11.36,0,17.22-4.31,20.17-15.34a46.59,46.59,0,0,0,1.57-11.81c.11-22.16,0-44.31-.07-66.47C307.65,24.4,307.48,22.8,307.38,21.07Z"/><path d="M726.49,30.8c-3-7.66-8.73-11.67-17.4-11.55-20.48.26-41,.17-61.45.23-10.58,0-16.52,4.18-19.48,14.32a46.78,46.78,0,0,0-1.85,12.77c-.08,22.31.12,44.62.25,66.93,0,1.45.21,2.89.33,4.47H651c0-2,0-3.61,0-5.24-.05-18-.13-36-.11-53.95a33.69,33.69,0,0,1,.8-7.9c1.48-6.19,4.64-8.62,11-8.68,9.66-.09,19.32-.09,29-.08,9.22,0,12.87,3.57,13.27,12.91.07,1.66,0,3.33,0,5q.11,26.73.23,53.45c0,2-.73,4.59,2.87,4.55,7-.09,14,0,21.35,0a26.45,26.45,0,0,0,.39-2.72c0-23.82,0-47.63-.28-71.44A37.8,37.8,0,0,0,726.49,30.8Z"/><path d="M518.41,20.67h-97V43.48h34.71v74.78H482V43.09h36.4Z"/><path d="M571.73,30.1c-4.18-8.17-8.87-11.52-17.93-10.32-4,.53-6.1,1.65-7.92,5.12C533.06,49.37,520,73.73,507.1,98.14c-3.48,6.56-6.86,13.16-10.67,20.48,6.48,0,12.12-.39,17.68.11s9.24-1,10.78-6.67c1-3.78,3.54-4.8,7.47-4.74,15.82.21,31.65.37,47.45-.21,6.27-.23,10,1.41,12,7.38.53,1.56,2.47,3.67,3.84,3.74,7.41.37,14.84.18,23,.18-1-2.23-1.6-3.74-2.37-5.16C601.38,85.57,586.07,58.09,571.73,30.1ZM535.54,90.3l22-40.57L579.67,90.3Z"/></svg>